<?xml  version="1.0" encoding="UTF-8"?>
<!DOCTYPE svg PUBLIC "-//W3C//DTD SVG 1.0//EN" "http://www.w3.org/TR/2001/REC-SVG-20010904/DTD/svg10.dtd" >
<svg xmlns="http://www.w3.org/2000/svg" >
<metadata>
<version>1.0</version>
<id><![CDATA[Typewriter W01 Regular]]></id>
<vendor>Monotype Imaging Inc.</vendor>
<credits>
<name>Fonts.com WebFonts</name>
<URL>http://webfonts.fonts.com</URL>
<role>Home of the Web fonts</role>
</credits>
<license>
<URL>http://webfonts.fonts.com/Legal</URL>
</license>
<copyright><![CDATA[Copyright 1990 The Monotype Corporation. All rights reserved.]]></copyright>
<trademark><![CDATA[Typewriter is a trademark of The Monotype Corporation in the United States and/or other countries.]]></trademark>
<licensee>
<name></name>
</licensee>
</metadata>
<defs >
<font horiz-adv-x="600" id="36577113-dd97-49f7-bcfe-9047f300f1a2">
<font-face font-family="" panose-1="2 7 5 9 2 2 5 2 3 4" ascent="855" descent="-198" units-per-em="1000" alphabetic="0">
</font-face>
<missing-glyph horiz-adv-x="0" />

<glyph unicode="&#xA;" />
<glyph unicode="&#xD;" />
<glyph unicode=" " />
<glyph unicode="!" d="M375 618L338 298Q334 266 329 254T309 242Q295 242 289 254T280 295L245 618H375ZM307 112Q334 112 352 95T370 51Q370 25 353 8T309 -10Q283 -10 265 7T247 51Q247 76 265 94T307 112Z"  />
<glyph unicode="&quot;" d="M156 570Q154 595 167 611T201 628Q222 628 235 611T246 568L224 343H180L156 570ZM379 565Q376 593 388 610T423 628Q443 628 456 614T468 580V573L440 343H400L379 565Z"  />
<glyph unicode="#" d="M229 428Q233 460 237 484T244 516Q250 533 265 533Q286 533 286 503Q286 501 286 499T285 494L273 412H370L383 498Q387 533 413 533Q423 533 429 526T434 508L433 501L420 412H501Q517 412 526 406T536 388Q536 364 497 364H413L397 258H488Q499 258 506 252T514 237Q514 226 502 219T469 212H390L376 120Q371 91 350 91Q329 91 329 125Q329 129 329 133T330 142L339 211H242L230 131Q224 91 205 91Q195 91 189 99T184 121V127L196 211H115Q83 211 83 233Q83 257 129 257H203L219 364H137Q108 364 108 386Q108 412 160 412H227L229 428ZM249 258H346L363 364H265L249 258Z"  />
<glyph unicode="$" d="M253 622V600Q268 602 277 602T301 602Q315 602 324 602T346 601V622H384V594Q457 577 498 538T539 445Q539 415 525 398T486 380Q465 380 453 392T440 424Q440 438 446 446T467 462Q476 465 479 468T482 476Q482 484 474 495T450 518Q434 530 420 537T384 550V323Q422 316 444 308T488 283Q549 237 549 160Q549 86 491 37Q480 28 470 22T447 9T420 -2T384 -13V-132H346V-18Q338 -19 332 -19T318 -19Q308 -19 298 -19T267 -17H263L253 -16V-132H215V-10Q183 -1 166 6T131 26Q95 52 76 87T56 160Q56 193 71 213T112 233Q134 233 149 221T164 189Q164 171 154 159T124 144Q116 143 114 141T111 131Q111 105 137 81T215 38V300Q76 332 76 441Q76 547 215 592V622H253ZM215 548Q167 528 145 504T123 447Q123 410 148 384T215 352V548ZM253 341L346 330V559Q336 561 328 561T305 562Q288 562 278 562T253 559V341ZM384 36Q444 53 472 81T501 155Q501 200 474 227T384 272V36ZM253 30Q270 28 282 27T309 26Q322 26 329 27T346 30V280L335 282Q312 285 300 287T268 291L253 293V30Z"  />
<glyph unicode="%" d="M179 501Q159 501 142 491T111 464T89 424T81 376Q81 341 99 320T148 298Q167 298 184 308T214 334T236 372T244 417Q244 452 225 476T179 501ZM475 557L473 559Q440 543 415 533T366 516T318 506T263 500Q276 477 281 459T286 417Q286 384 275 355T245 304T201 270T145 257Q96 257 66 290T36 379Q36 412 47 442T78 495T123 531T177 545Q180 545 183 545T192 544L195 543Q217 540 237 540Q346 540 474 609L484 615Q501 624 512 627T533 631Q554 631 554 618Q554 609 546 596L122 -156Q116 -166 113 -171T109 -178T106 -182T104 -184Q94 -192 83 -192Q74 -192 69 -188T63 -177Q63 -173 65 -169Q68 -163 73 -153T82 -137V-136L85 -132L87 -129L89 -125L475 557ZM475 140Q455 140 438 130T407 103T386 64T378 17Q378 -18 395 -38T442 -59Q461 -59 478 -50T509 -24T530 13T538 57Q538 91 520 115T475 140ZM466 183Q518 183 549 149T581 59Q581 26 570 -3T540 -54T496 -89T442 -102Q418 -102 398 -93T364 -68T341 -31T332 17Q332 50 343 80T372 133T415 169T466 183Z"  />
<glyph unicode="&amp;" d="M236 383Q327 437 327 507Q327 539 308 562T262 585Q236 585 219 563T201 507Q201 480 209 452T236 383ZM313 143Q294 171 280 193T254 235T232 274T210 316Q170 295 148 278Q118 255 101 223T84 159Q84 133 94 111T120 72T159 45T208 35Q246 35 275 55T328 120L313 143ZM360 78Q328 30 292 10T206 -10Q168 -10 137 3T82 38T46 92T33 162Q33 193 41 219T69 268T118 314T191 359Q170 410 162 441T153 504Q153 531 161 554T183 595T218 622T261 632Q285 632 305 622T342 594T367 553T376 502Q376 454 349 418T255 341Q260 330 265 320T277 298T293 271T315 235L322 225Q329 213 335 202T348 180L352 173L357 187L362 202Q373 236 381 259T396 298T410 324T425 343Q456 376 497 376Q536 376 561 348T586 274Q586 242 562 242Q550 242 545 249T538 275Q534 326 498 326Q471 326 453 302T416 215L412 202Q406 181 400 165T386 129Q407 101 422 83T451 53T475 38T498 33Q537 33 543 97Q545 115 549 121T567 127Q578 127 582 120T586 96Q586 46 562 18T493 -11Q462 -11 437 4T377 58L360 78Z"  />
<glyph unicode="&apos;" d="M268 547L267 561Q266 590 278 608T313 627Q334 627 348 611T360 574L333 313H291L268 547Z"  />
<glyph unicode="(" d="M391 -131Q410 -150 416 -158T422 -174Q422 -182 416 -188T402 -195Q383 -195 349 -158Q281 -84 247 8T212 210Q212 270 223 327T254 437T304 532T370 609Q388 624 399 624Q408 624 414 619T420 606Q420 593 405 578L400 573Q332 502 297 410T262 208Q262 158 270 111T293 21T330 -57T380 -120L385 -126L391 -131Z"  />
<glyph unicode=")" d="M210 578Q194 591 194 601Q194 608 201 617Q209 625 216 625Q223 625 236 616T264 590Q331 519 365 426T400 222Q400 110 365 12T265 -156Q249 -173 236 -183T215 -193Q207 -193 201 -185T194 -167Q194 -161 197 -156T212 -141L213 -140Q245 -112 270 -73T312 13T339 112T349 221Q349 305 330 378T273 506Q259 526 244 544T215 574L210 578Z"  />
<glyph unicode="*" d="M352 545L355 550Q355 551 356 552T358 555Q360 559 361 560V561L362 563L366 569Q372 580 376 584T389 588Q401 588 408 582T416 566Q416 562 415 560T407 546L346 439H486Q492 439 496 433T500 417Q500 393 479 393H339L410 270Q411 269 411 265Q411 256 403 249T382 242Q376 242 373 245T359 266L302 364L239 255Q232 242 218 242Q208 242 201 249T194 265Q194 272 202 285L204 287V288L265 393H114Q108 393 104 399T99 415Q99 424 104 431T117 438H258L194 549Q189 559 189 565Q189 574 196 580T215 587Q223 587 228 583T238 567V566L240 563V562L242 560L301 456L352 545Z"  />
<glyph unicode="+" d="M330 55Q330 42 325 37T305 32Q282 32 282 55V201H136Q111 201 111 224Q111 248 136 248H282V393Q282 416 305 416Q330 416 330 393V248H473Q498 248 498 223Q498 201 473 201H330V55Z"  />
<glyph unicode="&#x2c;" d="M157 -131Q173 -121 187 -109T211 -83T228 -56T234 -33Q234 -11 202 -7Q132 1 132 58Q132 87 152 106T201 125Q221 125 238 116T268 92T288 55T295 9Q295 -66 232 -131Q210 -154 187 -167T150 -181Q142 -181 136 -174T129 -158Q129 -153 133 -148T151 -135L157 -131Z"  />
<glyph unicode="-" d="M470 243Q481 243 489 237T497 219Q497 196 471 196H138Q126 196 120 203T114 220Q114 230 120 236T138 243H470Z"  />
<glyph unicode="." d="M208 115Q236 115 254 98T272 54Q272 28 254 10T210 -8Q184 -8 167 9T149 53Q149 78 167 96T208 115Z"  />
<glyph unicode="/" d="M94 -152Q94 -152 92 -154L91 -157Q88 -160 88 -162L87 -164Q67 -197 50 -197Q40 -197 34 -190T27 -172Q27 -164 31 -156T50 -127L53 -122Q58 -115 62 -108T70 -96Q71 -95 71 -94T72 -92Q72 -91 73 -91L505 580L525 612Q533 625 550 625Q574 625 574 603Q574 597 572 591T560 573Q560 572 558 570L554 564L96 -148L94 -152Z"  />
<glyph unicode="0" d="M311 583Q244 583 201 538Q163 498 143 439T123 308Q123 248 136 198T174 112T233 56T307 35Q347 35 380 55T438 111T475 198T489 309Q489 368 476 418T438 505T382 562T311 583ZM300 629Q354 629 398 607T474 543T523 443T540 314Q540 242 523 183T475 81T401 14T307 -10Q255 -10 212 13T138 79T90 179T72 308Q72 402 104 478T192 592Q217 609 246 619T300 629Z"  />
<glyph unicode="1" d="M186 567Q172 567 152 567T113 570Q108 570 106 570T101 571Q86 578 86 593Q86 603 92 609T110 616H338V47H500Q511 47 519 40T527 23Q527 13 522 7T509 0H111Q102 0 95 7T88 23Q88 31 94 39T108 47H287V570L186 567Z"  />
<glyph unicode="2" d="M171 479Q188 480 199 467T211 436Q211 415 197 402T161 388Q134 388 117 409T99 462Q99 491 112 520T149 572Q209 630 315 630Q417 630 471 575Q496 550 509 517T523 449Q523 373 465 318Q454 308 442 300T415 283T378 266T329 246Q278 227 249 213T202 183Q170 155 155 129T134 68L136 66Q154 85 174 93T220 101Q243 101 266 94T330 68Q365 51 385 45T422 38Q451 38 469 60T493 122L494 127Q496 144 502 150T524 156Q535 156 539 152T544 134Q544 104 533 74T503 25Q486 8 462 -1T411 -10Q387 -10 365 -3T305 24Q273 41 255 47T219 54Q191 54 167 40T130 2L129 1Q125 -6 121 -7T103 -9Q89 -9 86 -6T82 9Q82 46 90 86T113 151Q122 167 133 181T158 209Q171 221 185 231T217 251T258 271T312 292Q373 315 404 333Q412 337 416 341T430 353L433 355Q472 391 472 444Q472 475 461 501T428 546T377 575T311 585Q267 585 232 570T174 527Q155 503 155 486Q155 479 165 479H166H171Z"  />
<glyph unicode="3" d="M463 618Q481 618 481 600Q481 590 466 572L465 570Q463 570 462 567Q460 565 460 564L458 562L328 400Q366 399 389 395T433 377Q478 352 502 308T526 203Q526 154 510 115T464 48T392 5T298 -10Q253 -10 214 1T146 31T101 76T84 132Q84 162 100 182T141 203Q164 203 179 187T194 147Q194 117 167 100Q157 92 157 88Q157 79 171 70T206 52T254 39T304 34Q382 34 428 79T474 201Q474 234 464 262T437 311T395 342T342 354Q319 354 296 346T253 324Q244 318 241 318Q233 318 228 324T222 340Q222 347 229 358L399 569H178Q158 569 149 518L148 511Q145 491 139 483T121 475Q102 475 102 490V494V502Q103 507 103 510T104 522Q105 530 105 536T106 551Q107 555 107 558T108 565V573L110 594L111 605Q111 609 111 611T112 615V618H463Z"  />
<glyph unicode="4" d="M133 208H365V581H363L133 208ZM416 628V208H521Q544 208 544 184Q544 174 540 167T530 160H415V47H501Q512 47 518 41T525 23Q525 13 519 7T503 0H267Q258 0 251 7T244 23Q244 34 252 40T272 47H364V160H84Q69 160 69 180Q69 192 73 199L340 628H416Z"  />
<glyph unicode="5" d="M439 618Q453 618 461 612T469 594Q469 584 464 577T450 570H177L172 388Q202 412 232 423T303 434Q349 434 388 418T455 374T498 305T514 218Q514 169 497 127T450 55T378 7T287 -10Q250 -10 217 0T159 27T118 67T103 115Q103 141 118 158T157 175Q179 175 194 160T209 122Q209 100 190 81Q183 75 183 72Q183 65 192 59T215 47T247 38T283 34Q320 34 354 48T414 86Q440 111 452 140T464 208Q464 248 452 281T418 337T365 373T296 386Q247 386 215 365T161 295L159 292Q154 281 150 278T135 274Q119 274 119 284L129 618H439Z"  />
<glyph unicode="6" d="M329 350Q294 350 265 338T214 305T180 255T167 193Q167 160 179 132T213 82T262 49T324 36Q357 36 385 48T435 82T468 131T481 193Q481 224 469 252T435 303T387 337T329 350ZM387 567Q388 570 388 573Q388 584 370 584Q332 584 290 554T216 474Q193 437 179 397T156 308L158 306Q193 354 233 375T324 397Q367 397 404 381T470 338T514 273T530 193Q530 151 514 114T471 50T406 6T326 -10Q277 -10 236 10T166 66T120 151T103 261Q103 333 126 399T189 517T279 599T385 630Q431 630 459 609T488 552Q488 525 473 508T434 491Q411 491 397 506T382 545Q382 554 385 563L386 565L387 567Z"  />
<glyph unicode="7" d="M110 609Q110 628 126 628Q146 628 157 591Q184 612 205 621T251 630Q278 630 299 620T348 581Q366 563 377 557T401 550Q439 550 454 602L456 609Q459 621 464 625T480 629Q490 629 494 624Q499 619 502 603T505 565Q505 538 502 515T488 464T461 402T415 318L398 286Q371 237 357 205T337 142Q335 133 334 120T331 93T328 66T327 45V32Q327 6 322 -2T300 -10Q286 -10 281 0T275 39Q275 75 280 107T295 174T323 244T365 322L375 339L389 364Q406 393 417 414T435 452T445 486T452 524Q435 511 424 506T399 501Q381 501 364 510T321 543Q296 566 280 575T245 584Q203 584 179 544T153 435V425Q151 377 127 377Q110 377 110 396V609Z"  />
<glyph unicode="8" d="M314 586Q281 586 254 578T206 553T175 516T164 469Q164 443 175 422T205 385T250 361T309 352Q341 352 367 360T413 384T443 421T454 467Q454 492 443 514T414 552T370 577T314 586ZM311 304Q254 304 217 292T155 254Q123 220 123 175Q123 125 159 88Q185 61 221 49T309 36Q358 36 392 47T453 83Q494 122 494 174Q494 234 445 269T311 304ZM207 334Q111 380 111 472Q111 506 126 534T167 584T230 617T309 629Q352 629 388 617T449 584T489 534T504 468Q504 422 482 390T413 333Q545 289 545 177Q545 142 531 109T491 51Q427 -10 309 -10Q188 -10 124 54Q98 80 85 111T72 175Q72 213 89 247T141 305Q154 314 167 320T207 334Z"  />
<glyph unicode="9" d="M297 584Q262 584 232 572T181 539T147 490T134 427Q134 394 146 365T180 315T230 282T292 269Q324 269 352 281T402 315T435 364T448 425Q448 456 436 485T403 536T355 571T297 584ZM226 54Q225 52 225 51T224 48Q224 37 243 37Q268 37 294 49T344 84T390 138T429 208Q440 232 445 253T458 311L456 313Q419 264 380 242T290 220Q247 220 209 236T143 280T99 345T83 426Q83 469 99 506T142 570T207 614T286 630Q335 630 376 610T448 555T495 470T512 364Q512 290 489 222T426 103T335 21T226 -10Q205 -10 187 -4T156 13T134 38T126 70Q126 94 142 112T181 130Q203 130 218 116T233 80Q233 69 226 55V54Z"  />
<glyph unicode=":" d="M209 451Q236 451 254 433T273 389Q273 363 255 345T211 327Q185 327 167 345T149 389Q149 414 167 432T209 451ZM208 113Q235 113 253 95T271 51Q271 25 254 8T210 -10Q184 -10 166 7T148 51Q148 76 166 94T208 113Z"  />
<glyph unicode=";" d="M236 -32Q236 -11 204 -7Q186 -5 177 -2T159 8Q135 27 135 59Q135 88 154 106T203 125Q243 125 269 92T296 8Q296 -68 233 -132Q211 -154 189 -168T152 -182Q144 -182 137 -175T130 -159Q130 -154 135 -149T153 -135Q191 -111 213 -83T236 -32ZM213 452Q239 452 257 435T276 391Q276 365 259 347T215 329Q189 329 171 347T153 390Q153 415 171 433T213 452Z"  />
<glyph unicode="&lt;" d="M528 71Q539 67 542 61T547 41Q546 17 538 17Q536 17 528 19L94 198Q71 206 71 224Q71 244 94 253L530 432Q533 434 538 434Q546 434 546 413Q546 399 543 392T530 381L151 226L528 71Z"  />
<glyph unicode="=" d="M139 99Q128 99 120 106T112 123Q112 132 119 139T135 147H469Q483 147 491 140T500 120Q500 99 476 99H139ZM476 343Q501 343 501 320Q501 295 476 295H136Q127 295 120 303T112 320Q112 330 119 336T136 343H476Z"  />
<glyph unicode="&gt;" d="M81 433L524 251L532 248L538 243Q548 230 548 222Q548 216 541 208T526 197L95 20L84 17L77 19Q75 27 74 31T73 41Q73 46 73 48T75 56V59L466 224L82 386Q76 396 74 401T72 411Q72 416 75 428L77 432L81 433Z"  />
<glyph unicode="?" d="M280 262Q280 281 281 293T287 312T298 324T319 332L335 337Q398 357 426 385T455 459Q455 487 444 510T414 551T369 577T311 587Q289 587 268 582T229 568T202 549T191 528Q191 521 194 519T209 514Q259 509 259 462Q259 438 240 420T195 402Q165 402 144 426T123 487Q123 517 137 543T177 589T236 620T310 631Q353 631 389 619T451 584T492 530T507 461Q507 399 468 355T362 294L358 293Q351 291 347 289T338 284Q333 277 332 272T330 256V251V244V238Q330 236 330 234T331 228V223Q331 180 306 180Q292 180 286 191T280 228V249V253V262ZM308 114Q336 114 354 96T373 52Q373 26 355 8T310 -10Q284 -10 266 8T248 52Q248 77 266 95T308 114Z"  />
<glyph unicode="@" d="M255 49Q295 49 327 93Q350 125 364 176T378 277Q378 326 357 357T301 388Q278 388 258 370T222 322T197 253T188 170Q188 114 206 82T255 49ZM464 412L423 234Q409 170 409 125Q409 88 419 67T449 46Q467 46 484 65T514 116T536 187T545 267Q545 324 528 372T481 456T410 512T320 532Q266 532 220 508T140 440T87 338T68 210Q68 63 153 -22Q190 -58 237 -77T339 -96Q417 -96 484 -54Q507 -40 523 -24T561 21L583 -12Q558 -45 540 -63T497 -96Q427 -140 340 -140Q269 -140 211 -115T111 -44T48 68T25 213Q25 292 47 358T108 473T202 549T321 576Q378 576 427 552T511 486T567 386T587 260Q587 209 575 163T544 81T498 25T443 4Q414 4 397 24T370 90Q341 44 315 25T255 5Q229 5 209 17T173 53T150 109T142 182Q142 232 155 277T190 357T242 412T305 432Q338 432 360 415T401 355H403L416 412H464Z"  />
<glyph unicode="A" d="M207 230H398L304 540H302L207 230ZM115 85Q126 115 138 150T164 222T189 297T213 367Q233 428 245 474T267 560L272 585Q278 612 284 619T305 627Q319 627 324 621T335 594V593V592Q335 591 335 591T336 590Q336 589 337 588V585L506 47H556Q568 47 575 41T583 24Q583 13 576 7T556 0H397Q386 0 378 6T370 24Q370 34 377 40T397 47H453L412 183H193L152 47H205Q217 47 224 41T232 24Q232 13 225 7T205 0H50Q38 0 31 6T23 24Q23 34 30 40T50 47H100L115 85Z"  />
<glyph unicode="B" d="M232 354H383Q405 354 424 362T458 386T481 421T489 464Q489 512 456 541T370 571H232V354ZM232 47H386Q443 47 477 84T511 182Q511 241 479 274T388 307H232V47ZM110 569Q85 569 69 569T44 573T32 581T28 594Q28 605 35 611T55 617H363Q444 617 491 577T538 467Q538 422 520 392T458 336Q513 311 537 275T561 182Q561 141 548 108T509 50T449 13T372 0H54Q42 0 35 6T27 24Q27 34 34 40T54 47H182V571L110 569Z"  />
<glyph unicode="C" d="M461 575Q460 610 464 621T485 633Q508 633 508 608V386Q508 379 501 374T486 368Q475 368 469 376T460 406Q454 445 440 477T406 531T359 566T304 579Q266 579 234 559T179 500Q170 484 162 461T149 411T140 355T137 296Q137 225 154 170T205 80Q225 59 253 48T314 37Q437 37 469 179L470 185Q472 196 474 201T482 213Q487 217 492 217Q504 217 511 211T519 194Q519 177 514 157T499 116T478 76T451 43Q397 -11 315 -11Q257 -11 211 15T135 91Q114 127 102 187T89 311Q89 382 104 440T148 540T216 605T305 628Q353 628 390 606T459 534H461V575Z"  />
<glyph unicode="D" d="M221 47H346Q374 47 403 60T455 97Q516 163 516 306Q516 381 500 436T452 523Q429 546 395 558T322 571H221V47ZM108 569Q62 568 47 573T31 594Q31 604 38 610T58 617H316Q423 617 491 551Q530 511 549 453T568 310Q568 225 550 165T494 66Q464 35 422 18T335 0H57Q46 0 39 6T31 24Q31 34 38 40T57 47H171V571L108 569Z"  />
<glyph unicode="E" d="M104 569Q58 568 43 573T27 594Q27 604 34 610T54 617H558V397Q558 388 552 382T535 376Q510 376 510 423Q510 425 510 430T511 441V464Q511 522 488 546Q478 557 463 564T433 571H220V340H284Q375 340 373 439V451Q372 469 378 479T395 489Q404 489 410 482T417 464V154Q417 144 411 138T396 132Q384 132 379 143T373 183Q372 214 369 230T354 261Q345 275 324 284T282 293H220V47H448Q459 47 473 53T497 69Q508 81 513 101T519 154V170L518 182V187V194Q518 232 542 232Q552 232 559 226T566 211V0H53Q41 0 34 6T26 24Q26 34 33 40T53 47H170V571L104 569Z"  />
<glyph unicode="F" d="M126 569Q77 568 61 573T45 594Q45 604 53 610T72 617H562V386Q562 338 539 338Q511 338 514 394L515 420L516 452Q520 570 425 570H244V323H302Q339 323 356 342T373 405V418Q373 458 397 458Q405 458 411 451T417 433V147Q417 135 412 128T396 120Q372 120 372 166V178V191Q372 276 299 276H244V47H375Q387 47 394 41T402 24Q402 13 395 7T375 0H78Q66 0 59 6T51 24Q51 34 58 40T78 47H194V571L126 569Z"  />
<glyph unicode="G" d="M424 586Q424 609 424 618T427 632Q433 645 449 645Q474 645 474 624V413Q474 385 452 385Q440 385 435 393T425 426Q420 462 412 483T386 527Q343 582 280 582Q205 582 163 506T120 292Q120 170 161 103T277 36Q344 36 384 83T424 208V249H349Q337 249 330 255T322 273Q322 283 329 289T349 296H550Q562 296 569 290T577 273Q577 262 570 256T550 249H473V13Q473 1 466 -6T448 -14Q422 -14 422 12V58Q387 21 353 5T273 -11Q222 -11 181 12T114 80Q94 114 82 173T70 298Q70 374 85 435T127 539T192 606T279 630Q323 630 355 611T422 547H424V586Z"  />
<glyph unicode="H" d="M85 570Q51 569 39 574T26 594Q26 605 33 611T53 617H242Q253 617 260 611T268 594Q268 583 261 577T242 571H176V350H433V571H371Q359 571 352 577T344 594Q344 604 351 610T371 617H559Q571 617 578 611T586 594Q586 583 579 577T559 571H484V47H558Q570 47 577 41T585 23Q585 13 578 7T558 0H372Q361 0 353 6T345 23Q345 34 352 40T372 47H433V300H176V47H240Q252 47 259 41T267 24Q267 13 260 7T240 0H51Q40 0 33 6T25 23Q25 34 32 40T52 47H125V571L85 570Z"  />
<glyph unicode="I" d="M199 569Q190 569 180 569T160 569T142 570T130 572Q111 575 111 594Q111 604 118 610T138 617H473Q484 617 492 611T500 594Q500 583 492 577T473 571H329V47H471Q483 47 490 41T498 24Q498 13 491 7T471 0H135Q124 0 117 6T109 23Q109 34 116 40T136 47H279V571L199 569Z"  />
<glyph unicode="J" d="M258 569Q235 569 212 570T184 573Q168 578 168 594Q168 604 175 610T195 617H533Q559 617 559 595Q559 584 552 578T532 571H389V197Q389 137 378 99T339 35Q291 -11 222 -11Q188 -11 159 -1T109 28T75 72T62 127Q62 162 80 184T126 207Q149 207 164 192T180 154Q180 123 145 106Q135 101 132 97T128 86Q128 76 135 67T155 51T184 40T218 36Q276 36 307 77T339 194V571L258 569Z"  />
<glyph unicode="K" d="M89 570Q55 569 43 574T31 594Q31 605 38 611T58 617H270Q282 617 289 611T297 594Q297 583 290 577T270 571H179V304L429 571H370Q358 571 351 577T343 594Q343 604 350 610T370 617H552Q564 617 571 611T579 594Q579 583 572 577T552 571H494L315 380L500 47H562Q574 47 581 41T589 24Q589 13 582 7T562 0H372Q361 0 354 6T346 24Q346 34 353 40T372 47H444L281 344L179 236V47H270Q282 47 289 41T297 23Q297 13 290 7T270 0H58Q46 0 38 6T30 24Q30 35 37 41T57 47H129V571L89 570Z"  />
<glyph unicode="L" d="M120 569Q102 569 81 569T51 572Q32 575 32 594Q32 604 39 610T59 617H387Q399 617 407 611T415 594Q415 583 408 577T388 571H249V47H426Q446 47 465 55T497 77Q511 92 517 115T524 175Q524 184 524 197T523 222Q522 227 522 233Q522 272 546 272Q557 272 563 266T570 250V0H58Q46 0 39 6T31 24Q31 34 38 40T58 47H198V571L120 569Z"  />
<glyph unicode="M" d="M74 570Q46 569 35 574T24 594Q24 605 31 611T51 617H192L265 268Q271 238 276 213T285 164T292 115T298 60H300V66L303 83L304 92L305 99Q307 112 310 131T317 167L323 200L329 233L332 250L335 267L407 617H558Q569 617 576 611T584 594Q584 583 577 577T558 571H503V47H558Q569 47 576 41T584 24Q584 13 577 7T558 0H406Q395 0 387 6T379 24Q379 34 386 40T406 47H460V381V429V467V491V520V535L461 551V574V581H440L439 573Q437 556 435 544T430 513Q428 501 427 495T425 485L405 385L326 0H276L190 406Q185 430 180 454T171 500T164 538T160 563V581H142Q144 553 145 529T146 484V438V47H196Q207 47 214 41T222 24Q222 13 215 7T196 0H51Q40 0 32 6T24 23Q24 34 32 40T52 47H103V571L74 570Z"  />
<glyph unicode="N" d="M82 570Q47 569 35 574T22 594Q22 605 29 611T49 617H199L372 205Q374 200 376 194T382 181L390 162L401 134L411 110L420 87L440 35L442 37L438 114L435 192V571H342Q330 571 323 577T315 594Q315 605 322 611T342 617H562Q574 617 581 611T589 594Q589 584 582 578T562 571H483V0H410L257 358L225 434Q218 451 208 475T190 519L184 534Q183 538 182 541T180 546L171 573H169V562Q169 542 169 522T171 492V484L173 454V453V47H281Q293 47 300 41T308 24Q308 13 301 7T281 0H47Q36 0 28 6T20 24Q20 35 27 41T47 47H126V571L82 570Z"  />
<glyph unicode="O" d="M308 581Q265 581 231 562T173 507T136 420T123 304Q123 244 136 195T173 110T230 56T304 36Q389 36 437 109T485 313Q485 490 390 554Q372 567 350 574T308 581ZM299 629Q353 629 397 607T472 543T519 442T536 308Q536 236 520 177T473 76T400 12T305 -11Q252 -11 209 12T136 77T88 178T71 309Q71 407 101 479T188 590Q214 608 243 618T299 629Z"  />
<glyph unicode="P" d="M229 296H356Q428 296 468 332T508 434Q508 497 469 533T363 570H229V296ZM110 569Q61 568 45 573T29 594Q29 604 36 610T56 617H369Q411 617 445 604T504 567T542 510T556 435Q556 392 543 356T505 296Q481 273 441 262T348 250H230V47H346Q358 47 365 41T373 24Q373 13 366 7T346 0H75Q63 0 56 6T48 24Q48 34 55 40T75 47H179V571L110 569Z"  />
<glyph unicode="Q" d="M411 90Q425 108 432 121T445 148Q473 218 473 311Q473 373 460 423T424 508T367 562T292 581Q251 581 218 562T161 506T124 418T111 302Q111 211 142 140Q149 126 155 116T176 90Q180 140 210 167T295 194Q343 194 370 171T411 90ZM216 56Q237 44 254 40T294 35Q315 35 330 39T363 53Q361 104 345 126T292 148Q217 148 216 56ZM363 2Q336 -12 294 -12Q241 -12 198 11T124 76T76 177T59 308Q59 400 86 470T163 581Q192 604 226 616T294 629Q346 629 388 606T461 540T508 439T525 307Q525 180 476 96Q465 76 453 63T416 29V26V0Q413 -140 478 -140Q538 -140 538 -39Q538 -35 538 -26T537 -11V0Q537 38 560 38Q574 38 579 26T584 -19Q584 -105 558 -146T478 -187Q433 -187 408 -162Q388 -143 379 -113T365 -24L363 2Z"  />
<glyph unicode="R" d="M192 336H366Q391 336 413 345T451 371T477 409T487 455Q487 507 448 539T345 571H192V336ZM92 570Q55 569 42 574T29 594Q29 605 36 611T56 617H358Q395 617 431 603T491 566Q513 545 524 515T536 451Q536 396 509 361T416 300Q438 284 453 267T478 228T496 178T508 112Q510 94 512 83T520 65T533 55T555 50Q592 44 592 24Q592 14 586 7T569 0H501Q481 0 472 18T460 82Q457 130 448 167T422 227Q403 256 378 272T326 289H192V47H283Q294 47 301 41T309 24Q309 13 302 7T283 0H57Q46 0 39 6T31 24Q31 35 38 41T57 47H140V571L92 570Z"  />
<glyph unicode="S" d="M443 565L444 573L446 588Q449 613 455 623T473 633Q495 633 495 609V433Q495 424 490 418T475 411Q466 411 461 418T449 446Q441 472 434 487T413 519Q387 550 353 565T278 581Q215 581 176 549T137 463Q137 410 183 379Q214 359 302 350Q352 345 384 337T443 316Q488 293 510 256T533 169Q533 128 518 95T476 39T410 2T324 -11Q268 -11 227 6T147 62Q145 58 145 54T144 42V38Q140 -3 135 -16T116 -30Q106 -30 99 -24T91 -10V224Q91 233 97 239T113 245Q125 245 131 234T140 197Q144 162 151 142T173 102Q224 36 321 36Q396 36 440 71T485 164Q485 220 441 256Q430 266 418 273T389 285T350 293T298 300Q239 305 207 314T149 341Q87 386 87 461Q87 498 100 529T139 582T198 617T275 629Q299 629 319 626T359 614T399 592T442 557L443 565Z"  />
<glyph unicode="T" d="M538 617V399Q538 370 515 370Q502 370 497 379T491 409V426Q492 433 492 439T492 450Q492 508 468 539T399 570H331V47H445Q457 47 464 41T472 24Q472 13 465 7T445 0H167Q156 0 148 6T140 23Q140 34 148 40T167 47H280V570H207Q191 570 176 564T150 549Q123 522 123 446Q123 441 123 434T124 417V411V405Q124 370 99 370Q89 370 82 377T75 395V617H538Z"  />
<glyph unicode="U" d="M77 570Q45 569 33 574T21 594Q21 604 28 610T48 617H239Q251 617 258 611T266 594Q266 583 258 577T239 571H165V176Q165 109 200 72T301 35Q369 35 407 75T446 186V571H370Q358 571 351 577T343 594Q343 604 350 610T370 617H561Q573 617 580 611T588 594Q588 583 581 577T561 571H496V210Q496 103 446 46T300 -11Q211 -11 163 40T115 185V571L77 570Z"  />
<glyph unicode="V" d="M78 570Q47 569 36 574T24 594Q24 604 31 610T51 617H234Q246 617 253 611T261 594Q261 583 254 577T234 571H165L304 68H306L446 571H380Q368 571 361 577T353 594Q353 605 360 611T380 617H563Q575 617 582 611T590 594Q590 583 582 577T563 571H496L331 -11H282L113 571L78 570Z"  />
<glyph unicode="W" d="M52 571Q21 571 21 594Q21 605 28 611T48 617H144Q156 617 163 611T171 594Q171 583 164 577T144 571H102L150 326L166 240Q171 210 174 195T179 169L181 153L196 46H198L212 180Q214 193 216 209T221 248L232 315L272 571H236Q225 571 217 577T209 594Q209 605 216 611T236 617H378Q390 617 397 611T405 594Q405 583 398 577T378 571H335L378 310L400 163Q401 154 402 141T405 120L407 100L412 48H414L424 126Q427 148 430 167T436 202L453 293L508 571H470Q459 571 452 577T444 594Q444 605 451 611T470 617H564Q576 617 583 611T591 594Q591 583 584 577T564 571H551L438 -11H385L328 354Q326 364 325 380T319 425L318 437L313 473V479Q310 494 310 503L306 534V545H304V538Q303 536 303 532T302 521L301 511L300 501L291 425L290 421Q289 415 289 407T286 387L285 382Q284 374 284 370T283 362L225 -11H173L58 571H52Z"  />
<glyph unicode="X" d="M94 570Q59 569 47 574T34 594Q34 605 41 611T61 617H242Q254 617 261 611T269 594Q269 583 262 577T242 571H192L306 374L420 571H372Q360 571 353 577T345 594Q345 605 352 611T372 617H549Q561 617 568 611T576 594Q576 583 569 577T549 571H476L334 326L497 47H554Q565 47 572 41T580 24Q580 13 573 7T554 0H383Q371 0 364 6T356 24Q356 34 363 40T383 47H442L306 279L171 47H235Q247 47 254 41T262 24Q262 13 255 7T235 0H61Q49 0 42 6T34 24Q34 34 41 40T61 47H114L278 326L135 571L94 570Z"  />
<glyph unicode="Y" d="M74 570Q45 569 34 574T23 594Q23 604 30 610T50 617H226Q238 617 245 611T253 594Q253 583 246 577T226 571H160L308 293L455 571H377Q365 571 358 577T350 594Q350 604 357 610T377 617H564Q575 617 582 611T590 594Q590 583 583 577T564 571H508L332 238V47H446Q458 47 465 41T473 24Q473 13 466 7T446 0H166Q154 0 147 6T139 23Q139 34 146 40T166 47H281V240L106 571L74 570Z"  />
<glyph unicode="Z" d="M515 617Q522 617 527 612T532 598Q532 593 527 586L142 47H413Q430 47 449 56T478 80Q489 95 494 118T500 177Q501 210 506 222T525 234Q548 234 546 205L539 0H72Q58 0 58 10Q58 17 68 32L355 431L455 571H257Q208 571 186 546T159 458L158 449Q154 401 131 401Q123 401 117 406T112 419L125 617H515Z"  />
<glyph unicode="[" d="M432 609Q443 609 443 588Q443 564 429 564H280V-141H427Q444 -141 444 -164Q444 -187 430 -187H228V609H432Z"  />
<glyph unicode="\" d="M50 575Q42 587 39 594T36 606Q36 615 42 621T60 628Q70 628 76 622T93 601L568 -128Q585 -155 585 -169Q585 -179 579 -185T561 -191Q552 -191 547 -186T530 -165L50 575Z"  />
<glyph unicode="]" d="M257 559Q245 559 229 559T197 561Q192 561 191 561T187 562Q176 567 176 584Q176 594 180 600T193 607H393V-189H194Q178 -189 178 -167Q178 -156 183 -150T198 -143H341V561L257 559Z"  />
<glyph unicode="^" d="M482 551L496 536Q497 535 497 532Q497 519 486 519Q474 519 456 527L309 593L146 522Q141 519 134 519Q121 519 120 532V533V535L119 537L306 687L482 551Z"  />
<glyph unicode="_" d="M592 -121V-169H19V-121H592Z"  />
<glyph unicode="`" d="M283 653L360 549Q371 533 371 522Q371 514 366 509T354 504Q341 504 323 522L191 653H283Z"  />
<glyph unicode="a" d="M399 246Q391 240 386 237T375 231Q361 224 333 219T267 211Q176 203 150 183Q116 159 116 121Q116 84 142 61T211 37Q245 37 278 49T339 80T382 125T399 175V246ZM531 95Q531 123 552 123Q576 123 576 88Q576 45 551 18T484 -9Q404 -9 399 80Q355 34 311 13T216 -9Q183 -9 156 0T109 26T79 66T68 118Q68 153 82 181T124 226Q167 251 266 256Q339 259 368 274T397 324Q397 353 375 374Q359 390 334 397T269 404Q230 404 203 398T176 382Q176 380 181 373Q194 360 194 341Q194 319 181 305T145 291Q123 291 110 305T97 343Q97 391 146 420T275 449Q360 449 404 414T449 309V97Q449 38 490 38Q528 38 531 89V95Z"  />
<glyph unicode="b" d="M346 403Q313 403 286 390T239 352T209 293T198 217Q198 178 208 145T236 88T280 51T336 37Q367 37 392 51T436 90T465 150T476 226Q476 265 467 297T440 353T398 390T346 403ZM97 571Q57 570 44 575T30 596Q30 607 37 613T57 620H200V369H202Q233 414 265 432T343 451Q384 451 418 435T476 389T514 318T528 227Q528 175 514 131T475 56T415 7T338 -11Q293 -11 263 6T200 69H198V10Q198 -14 174 -14Q149 -14 149 12V572L97 571Z"  />
<glyph unicode="c" d="M467 128Q473 142 478 145T495 149Q519 149 519 134Q519 118 506 93T473 48Q418 -10 327 -10Q279 -10 241 6T174 52T131 124T116 218Q116 270 131 312T175 385T242 433T328 450Q364 450 396 440T453 412T492 371T506 321Q506 292 491 274T452 255Q429 255 415 271T400 311Q400 339 423 356Q431 363 431 366Q431 373 417 382Q401 393 378 399T332 406Q296 406 266 392T215 354T181 295T168 221Q168 180 180 147T214 89T266 51T332 37Q377 37 411 59T466 125L467 128Z"  />
<glyph unicode="d" d="M270 403Q239 403 213 390T168 351T139 292T128 218Q128 178 138 145T166 88T209 51T264 38Q295 38 321 51T367 89T396 146T407 218Q407 257 397 291T368 349T324 388T270 403ZM350 568Q307 567 293 572T279 593Q279 604 286 610T306 616H457V46H556Q568 46 575 40T583 23Q583 12 576 6T556 -1H408V84H406Q375 32 343 12T261 -9Q186 -9 142 38Q109 73 92 118T74 216Q74 265 89 307T129 381T190 431T266 449Q310 449 343 429T406 361H408V569L350 568Z"  />
<glyph unicode="e" d="M455 264Q449 299 441 319T417 357Q396 380 367 392T303 404Q181 404 156 264H455ZM152 200Q152 165 164 135T197 83T248 49T313 36Q407 36 455 124Q460 134 465 137T480 141Q502 141 502 124Q502 110 490 89T459 48Q400 -11 312 -11Q264 -11 225 5T159 52T116 124T100 218Q100 269 115 311T157 385T223 433T306 450Q417 450 475 354Q492 325 499 295T507 217H152V200Z"  />
<glyph unicode="f" d="M245 471Q245 545 291 586T418 628Q451 628 479 620T529 598T561 563T573 520Q573 498 561 485T529 471Q509 471 497 484T485 519Q485 526 486 530T491 543Q495 551 495 554Q495 567 473 576T420 586Q393 586 366 577T324 552Q310 538 303 517T295 470V441H420Q432 441 439 435T447 417Q447 406 440 400T420 393H298V47H409Q421 47 428 41T436 23Q436 13 429 7T409 0H155Q144 0 137 6T129 24Q129 34 136 40T155 47H247V393H153Q141 393 134 399T126 417Q126 428 133 434T153 440H245V471Z"  />
<glyph unicode="g" d="M284 405Q258 405 236 397T197 373T172 336T163 289Q163 264 172 242T197 204T234 179T280 170Q304 170 324 179T360 203T384 240T393 285Q393 309 384 330T360 368T326 395T284 405ZM322 24Q220 24 165 3T110 -57Q110 -96 159 -118T297 -140Q391 -140 446 -117T501 -54Q501 -16 456 4T322 24ZM483 384Q484 387 484 392Q484 397 477 401T459 405Q435 405 410 383Q427 359 434 337T441 289Q441 254 429 225T394 174T343 140T279 127Q219 127 171 168Q145 154 134 140T123 105Q123 89 129 77T153 50Q191 61 226 65T310 70Q425 70 487 39T549 -51Q549 -94 518 -122Q484 -154 430 -169T291 -184Q215 -184 167 -171T90 -128Q76 -115 69 -98T61 -63Q61 -37 71 -17T105 25Q87 47 80 63T73 100Q73 132 88 155T142 201Q128 229 123 247T117 289Q117 324 129 354T163 405T214 439T279 452Q309 452 333 443T384 413Q411 434 430 442T474 451Q513 451 538 431T563 382Q563 361 551 347T521 333Q504 333 493 343T481 369Q481 372 481 374T482 381L483 383V384Z"  />
<glyph unicode="h" d="M93 571Q58 570 46 575T33 594Q33 605 40 611T60 617H186V318H188Q239 390 283 420T381 451Q435 451 463 418T492 321V47H559Q571 47 578 41T586 24Q586 13 579 7T559 0H378Q366 0 359 6T351 24Q351 34 358 40T378 47H443V310Q443 404 377 404Q348 404 317 388T256 340Q232 315 217 291T185 227V47H250Q262 47 269 41T277 24Q277 13 270 7T250 0H60Q48 0 41 6T33 24Q33 34 40 40T60 47H135V571H93Z"  />
<glyph unicode="i" d="M205 392Q196 392 186 392T165 392T147 393T135 394Q115 399 115 417Q115 428 122 434T142 440H335V47H466Q478 47 485 41T493 24Q493 13 486 7T466 0H147Q135 0 128 6T120 23Q120 34 127 40T147 47H285V393L205 392ZM298 625Q318 625 332 613T346 580Q346 560 333 547T300 534Q281 534 268 547T255 579Q255 598 268 611T298 625Z"  />
<glyph unicode="j" d="M293 392Q279 391 261 391T226 393Q221 394 218 394T212 395Q196 401 196 417Q196 428 203 434T223 440H432V3Q432 -39 420 -74T386 -135T335 -175T270 -190Q238 -190 210 -178T161 -146T128 -99T115 -41Q115 -7 130 13T171 34Q192 34 206 21T220 -14Q220 -34 207 -47T173 -61Q171 -61 169 -61T164 -60Q172 -98 199 -120T267 -142Q314 -142 345 -111Q365 -91 374 -60T383 26V393L293 392ZM388 629Q408 629 422 616T436 583Q436 563 423 550T390 537Q371 537 358 550T344 583Q344 601 357 615T388 629Z"  />
<glyph unicode="k" d="M108 570Q72 569 59 574T46 594Q46 605 53 611T73 617H204V221L408 393H367Q356 393 348 399T340 417Q340 428 348 434T367 441H546Q557 441 564 435T572 417Q572 406 565 400T546 393H479L322 260L470 47H546Q557 47 565 41T573 23Q573 13 565 7T546 0H364Q353 0 346 6T338 24Q338 34 345 40T364 47H412L286 228L204 161V47H281Q293 47 300 41T308 24Q308 13 301 7T281 0H73Q61 0 54 6T46 24Q46 34 53 40T73 47H154V571L108 570Z"  />
<glyph unicode="l" d="M178 568Q164 568 149 568T120 569T96 570T82 572Q67 579 67 594Q67 604 74 610T94 617H336V47H505Q517 47 524 41T532 24Q532 13 525 7T505 0H117Q105 0 98 6T90 23Q90 34 97 40T117 47H287V571L178 568Z"  />
<glyph unicode="m" d="M129 362H131Q164 409 192 429T254 449Q321 449 334 351H336Q365 402 392 425T453 448Q493 448 516 414T539 322V47H561Q573 47 580 41T588 24Q588 13 581 7T561 0H461Q449 0 442 6T434 24Q434 35 441 41T461 47H493V319Q493 364 484 382T453 401Q420 401 388 364Q370 343 359 322T335 264V47H368Q380 47 387 41T395 24Q395 13 388 7T368 0H253Q241 0 234 6T226 24Q226 35 233 41T253 47H287V335Q287 401 250 401Q228 401 203 383T160 335Q151 321 144 305T129 269V47H164Q176 47 183 41T191 24Q191 13 184 7T164 0H47Q36 0 28 6T20 24Q20 35 27 41T47 47H82V393H47Q35 394 28 400T20 417Q20 428 27 434T47 440H129V362Z"  />
<glyph unicode="n" d="M183 315H185Q236 385 283 416T382 448Q435 448 463 415T492 318V47H557Q569 47 576 41T584 24Q584 13 577 7T557 0H380Q368 0 361 6T353 24Q353 34 360 40T380 47H443V301Q443 401 378 401Q348 401 316 385T252 336Q229 313 215 290T183 229V47H251Q262 47 270 41T278 24Q278 13 270 7T251 0H68Q56 0 49 6T41 24Q41 34 48 40T68 47H133V393H62Q51 393 43 399T35 417Q35 428 42 434T62 440H183V315Z"  />
<glyph unicode="o" d="M304 450Q349 450 386 433T451 386T493 313T508 221Q508 172 493 130T451 56T388 8T310 -10Q266 -10 229 7T165 54T123 126T108 218Q108 266 123 308T165 382T227 432T304 450ZM314 402Q243 402 201 352T158 219Q158 179 169 146T200 88T248 50T309 36Q342 36 369 49T417 87T448 145T459 219Q459 258 448 291T418 349T372 388T314 402Z"  />
<glyph unicode="p" d="M357 402Q325 402 298 388T251 350T220 292T209 218Q209 178 219 145T249 88T295 51T354 38Q416 38 452 87T488 221Q488 334 421 381Q389 402 357 402ZM209 359H211Q243 408 276 428T355 449Q395 449 429 432T488 385T527 312T541 221Q541 171 527 129T488 56T429 8T354 -9Q307 -9 274 12T211 82H209V-126H289Q300 -126 308 -132T316 -150Q316 -160 308 -166T289 -173H87Q75 -173 68 -167T60 -150Q60 -139 67 -133T87 -126H158V395H69Q58 395 50 401T42 418Q42 429 50 435T69 442H209V359Z"  />
<glyph unicode="q" d="M277 404Q219 404 186 369Q132 312 132 215Q132 175 142 142T171 86T216 49T274 36Q305 36 331 49T376 87T405 144T416 219Q416 259 406 293T377 351T333 390T277 404ZM413 404Q412 455 438 455Q448 455 455 448T462 430V-130H547Q559 -130 566 -136T574 -153Q574 -163 567 -169T547 -176H316Q304 -176 297 -170T289 -153Q289 -142 296 -136T316 -130H414V72H412Q365 -10 270 -10Q229 -10 194 7T134 54T95 126T81 218Q81 268 95 311T134 385T193 433T268 451Q313 451 345 433T412 371L414 373L413 404Z"  />
<glyph unicode="r" d="M274 342Q319 396 361 421T451 446Q498 446 527 421T556 355Q556 329 543 313T509 297Q489 297 476 311T463 349Q463 374 481 393Q472 398 467 399T454 400Q433 400 411 393T367 374T328 345T298 308Q290 294 284 278T277 253V47H388Q400 47 407 41T415 24Q415 13 408 7T388 0H117Q105 0 98 6T90 24Q90 34 97 40T117 47H226V393H122Q111 393 104 399T96 417Q96 428 103 434T122 440H274V342Z"  />
<glyph unicode="s" d="M429 394Q430 396 430 399T431 405V407Q436 435 442 445T460 456Q482 456 482 431V306Q482 281 463 281Q456 281 452 284T443 299Q390 408 274 408Q229 408 200 387T170 333Q170 301 199 285T303 261Q359 255 394 245T452 221Q478 203 492 178T507 123Q507 94 495 70T460 27T406 -1T339 -11Q291 -11 254 4T173 55Q172 51 172 45T170 35V32Q166 5 160 -6T142 -17Q123 -17 123 2V156Q123 172 140 172Q148 172 154 166T168 141Q176 124 181 116T195 96Q221 66 257 50T338 33Q392 33 426 56T461 118Q461 156 425 180Q411 189 381 196T309 208Q210 219 167 247T123 329Q123 356 134 378T166 416T214 442T275 451Q319 451 356 437T429 392V394Z"  />
<glyph unicode="t" d="M178 392Q132 391 117 396T102 417Q102 427 109 433T129 439H141Q170 440 190 446T222 465T239 499T245 550V569Q243 621 270 621Q279 621 286 615T294 600V441H446Q458 441 465 435T473 417Q473 406 466 400T446 394H291V131Q291 85 313 61T377 36Q463 36 468 134V140Q469 174 490 174Q504 174 509 167T515 140Q515 70 478 30T374 -10Q311 -10 277 24T242 119V394L178 392Z"  />
<glyph unicode="u" d="M90 393Q56 392 44 397T32 417Q32 428 40 434T59 440H180V106Q180 74 196 56T240 38Q302 38 362 100Q382 120 398 143T433 203L435 208L436 210Q436 210 437 212V393H364Q352 393 345 399T337 417Q337 428 344 434T364 440H486V47H555Q567 47 574 41T582 24Q582 13 575 7T555 0H437V130H435Q387 57 342 25T239 -7Q187 -7 158 22T129 102V394L90 393Z"  />
<glyph unicode="v" d="M93 393Q62 392 51 397T39 417Q39 428 46 434T66 441H246Q257 441 264 435T272 417Q272 406 265 400T246 393H180L305 33H307L429 393H362Q350 393 343 399T335 417Q335 428 342 434T362 441H543Q555 441 562 435T570 417Q570 406 563 400T543 393H479L336 -10H276L129 393H93Z"  />
<glyph unicode="w" d="M75 393Q47 393 37 398T27 417Q27 428 34 434T54 441H154Q166 441 173 435T181 417Q181 407 174 401T154 394L120 393L174 168Q183 131 189 102T200 36H202Q204 54 206 70T211 102T218 137T227 180L272 393L239 394Q227 394 220 400T212 417Q212 428 219 434T239 441H378Q390 441 397 435T405 417Q405 406 398 400T378 394L346 393L389 196Q397 158 403 127T414 57L417 34H419L421 54Q426 88 433 123T447 189L496 393L467 394Q455 394 448 400T440 417Q440 428 447 434T467 441H562Q574 441 581 435T589 417Q589 407 582 401T562 394L541 393L441 -10H389L333 257Q331 265 329 279T323 313L319 331L318 340L316 350L309 394H307L306 378Q300 340 295 311T284 252L227 -10H175L75 393Z"  />
<glyph unicode="x" d="M98 393Q65 392 53 397T41 417Q41 428 49 434T68 441H245Q256 441 264 435T272 417Q272 406 264 400T245 393H199L309 264L419 393H371Q360 393 352 399T344 417Q344 428 351 434T371 441H545Q556 441 564 435T572 417Q572 406 564 400T545 393H479L339 228L490 47H551Q563 47 570 41T578 24Q578 13 571 7T551 0H381Q369 0 362 6T354 24Q354 34 361 40T381 47H429L308 191L185 47H231Q243 47 250 41T257 24Q257 13 250 7T231 0H60Q48 0 41 6T33 24Q33 34 40 40T60 47H124L278 227L137 393H98Z"  />
<glyph unicode="y" d="M101 393Q68 392 56 397T44 417Q44 428 51 434T71 441H246Q257 441 264 435T272 417Q272 406 265 400T246 393H192L316 83L439 393H385Q374 393 366 399T358 417Q358 428 366 434T385 441H557Q569 441 576 435T584 417Q584 406 577 400T557 393H492L302 -86Q282 -136 248 -162T168 -189Q142 -189 120 -181T80 -159T54 -125T44 -84Q44 -58 58 -42T94 -26Q113 -26 125 -39T138 -72Q138 -84 132 -96T116 -116Q112 -120 112 -122Q112 -130 129 -136T166 -143Q185 -143 200 -137T227 -116T252 -75T279 -10L281 -5Q283 0 284 4T289 16L290 19L140 393H101Z"  />
<glyph unicode="z" d="M486 441Q510 441 510 421Q510 412 502 400T468 360L181 47H413Q424 47 435 53T455 68Q464 79 467 94T473 136Q474 165 479 176T497 188Q505 188 511 181T518 163V0H104Q92 0 92 14Q92 25 98 31L430 393H231Q200 393 186 377T166 319L165 311Q157 267 136 267Q128 267 122 273T117 287V291L139 441H486Z"  />
<glyph unicode="{" d="M135 235Q164 238 182 244T217 262Q233 273 244 287T261 320T271 365T275 428Q276 511 294 550Q309 584 346 601T440 619H473V577Q427 577 399 571T354 549T332 502T325 423Q323 322 297 280Q286 261 265 244T215 213Q249 194 270 176T304 135T320 79T326 0Q327 -56 334 -85T359 -130Q366 -136 375 -140T397 -147T428 -150T473 -152V-196H444Q335 -196 297 -134Q275 -96 275 -2Q274 52 268 84T247 135Q227 162 202 174T135 190V235Z"  />
<glyph unicode="|" d="M292 608Q292 627 318 627Q342 627 342 605V-168Q342 -182 337 -186T315 -191Q302 -191 297 -187T292 -170V608Z"  />
<glyph unicode="}" d="M169 621Q276 621 315 562Q326 545 331 511T337 431V423Q337 373 343 342T363 290Q380 266 406 253T476 233V190Q450 188 431 182T395 164Q379 153 368 139T351 106T341 61T338 -1Q337 -55 331 -88T310 -141Q287 -171 257 -183T175 -196H137V-153Q162 -153 179 -152T208 -149T228 -145T244 -137Q267 -123 276 -93T286 -2Q287 44 291 76T307 132T339 173T389 208L393 210L396 212L388 217Q358 233 339 250T308 291T292 347T287 426Q287 472 282 502T262 549T222 572T157 579H138V621H169Z"  />
<glyph unicode="~" d="M71 144Q69 122 46 122Q23 122 23 150Q23 184 34 214T66 268T112 305T167 319Q200 319 239 300T329 237L335 232Q343 225 354 218T376 202Q391 191 399 187T416 180Q422 178 431 176T446 174Q464 174 481 184T512 212T535 252T546 300L547 319Q550 342 570 342Q595 342 595 311Q595 274 583 241T549 182T500 141T442 126Q414 126 378 144T292 204Q266 225 246 238T205 262Q194 267 187 269T169 271Q152 271 136 262T106 239T83 206T73 168L71 144Z"  />
<glyph unicode="&#xA0;" />
<glyph unicode="&#xA1;" d="M314 444Q341 444 359 426T378 382Q378 356 360 338T316 320Q290 320 272 338T254 382Q254 407 272 425T314 444ZM288 159Q291 191 316 191Q343 191 347 145L381 -186H248L288 159Z"  />
<glyph unicode="&#xA2;" d="M343 328Q340 338 340 346Q340 359 352 374Q358 381 358 387Q358 402 323 402Q285 402 250 385T189 338T147 271T131 190Q131 122 179 77L343 328ZM528 612Q536 623 540 627T553 631Q564 631 571 624T579 605Q579 599 576 595L448 398Q456 379 456 366Q456 346 444 328T412 304Q407 302 402 302T385 300L221 49Q246 37 276 37Q341 37 398 92Q410 104 419 117T442 153H490Q479 124 471 109T448 78Q413 35 367 13T269 -10Q248 -10 233 -7T195 7L75 -178Q67 -191 50 -191Q40 -191 33 -184T25 -167Q25 -158 31 -149L150 34Q114 66 97 105T79 194Q79 245 99 292T154 374T235 431T331 452Q351 452 367 449T412 434L528 612Z"  />
<glyph unicode="&#xA3;" d="M245 92Q210 127 188 139T142 152Q113 152 95 135T76 91Q76 64 95 47T146 29Q207 29 245 92ZM242 325Q231 359 227 383T222 431Q222 473 236 508T274 568T333 608T409 623Q444 623 474 613T526 583T561 539T574 485Q574 453 559 435T515 417Q492 417 479 429T465 464Q465 480 472 489T499 507Q515 514 515 521Q515 531 506 540T481 558T447 571T409 576Q380 576 355 566T312 538T284 495T274 440Q274 414 279 389T298 325H513V284H309Q314 255 316 236T319 197Q319 171 315 151T303 106Q327 83 345 69T379 46T409 34T441 30Q526 30 541 122H589Q584 93 579 77T563 44Q521 -18 440 -18Q396 -18 360 -1T280 61Q248 19 217 0T147 -19Q122 -19 101 -11T64 12T39 47T30 90Q30 113 38 132T62 166T97 189T142 197Q174 197 202 184T266 138L267 144Q269 158 269 166T269 185Q269 207 266 229T253 284H60V325H242Z"  />
<glyph unicode="&#xA4;" d="M511 173Q504 166 498 159T484 145L418 211Q395 191 365 180T300 168Q275 168 243 177T182 211L116 145Q109 152 103 159T89 173Q106 189 122 205T156 237Q139 259 127 288T114 354Q114 390 125 420T156 471Q139 488 123 503T89 536Q96 543 102 550T116 564L182 498Q213 522 244 531T300 540Q328 540 360 530T417 498Q434 515 450 531T484 564Q491 557 497 550T511 536Q494 519 478 504T444 471Q465 446 475 416T485 354Q485 319 474 290T444 237Q461 221 477 205T511 173ZM447 355Q447 388 435 415T402 461T355 491T301 502Q269 502 242 490T194 458T163 411T152 355Q152 325 163 298T195 251T243 218T300 206Q330 206 357 218T404 250T435 297T447 355Z"  />
<glyph unicode="&#xA5;" d="M304 286L351 394H256L304 286ZM394 568Q359 567 348 572T337 591Q337 613 369 613H527Q553 613 553 591Q553 568 521 568H476L420 438H520Q553 438 553 413Q553 394 527 394H400L355 293H521Q553 293 553 268Q553 248 526 248H335L329 233V44H441Q470 44 470 23Q470 0 436 0H182Q162 0 154 5T146 22Q146 33 154 38T182 44H286V221L274 247H96Q77 247 70 252T62 269Q62 281 70 286T98 291H255L210 393H92Q75 393 69 397T62 413Q62 438 102 438H190L133 567H93Q76 567 70 572T63 589Q63 612 98 612H243Q264 612 264 592Q264 567 224 567H179L237 438H370L428 568H394Z"  />
<glyph unicode="&#xA6;" d="M335 763V454H299V763H335ZM335 140V-170H299V140H335Z"  />
<glyph unicode="&#xA7;" d="M271 354Q251 349 236 345T209 337T187 326T166 312Q148 298 138 279T128 238Q128 196 171 164T314 99L339 91L351 86Q383 96 400 103T434 122Q482 156 482 202Q482 242 442 273T307 341L284 350L271 354ZM216 -93Q212 -97 212 -101Q217 -121 244 -131T319 -142Q382 -142 420 -119T459 -57Q459 -27 423 -1Q409 9 380 21T309 46Q248 64 209 81T145 117Q80 165 80 233Q80 266 95 294T139 346Q153 357 167 364T209 380Q158 408 136 436T114 500Q114 528 128 552T166 593T224 620T298 630Q337 630 371 621T430 596T470 560T485 515Q485 491 471 475T436 459Q416 459 402 472T387 503Q387 517 401 530Q409 537 409 541Q409 548 395 559Q378 570 352 576T294 582Q235 582 200 561T164 504Q164 474 196 448Q208 439 237 425T308 395Q368 372 407 353T470 316Q531 268 531 206Q531 174 516 144T471 92Q460 84 449 79T415 65Q466 39 487 11T509 -56Q509 -86 495 -110T456 -152T395 -179T317 -189Q277 -189 243 -181T183 -157T144 -120T130 -74Q130 -51 145 -35T183 -19Q203 -19 216 -31T229 -62Q229 -78 217 -91L216 -93Z"  />
<glyph unicode="&#xA8;" d="M173 599Q194 599 207 586T221 553Q221 533 208 520T175 506Q156 506 143 519T129 553Q129 571 142 585T173 599ZM423 598Q443 598 457 585T471 552Q471 532 458 519T425 505Q405 505 392 518T378 551Q378 570 391 584T423 598Z"  />
<glyph unicode="&#xA9;" d="M299 657Q354 657 401 638T484 584T539 504T559 403Q559 350 540 304T486 224T406 169T308 149Q256 149 210 169T130 223T77 304T57 402Q57 453 76 499T129 580T207 636T299 657ZM315 627Q266 627 224 610T151 563T103 493T85 404Q85 357 102 316T150 245T220 197T307 179Q353 179 393 196T464 244T511 315T529 403Q529 448 512 488T465 560T397 609T315 627ZM374 547Q374 558 378 565T391 572Q407 572 407 545V465Q407 454 402 447T389 439Q383 439 379 445T372 466Q364 501 346 520T301 540Q257 540 232 502T207 395Q207 332 232 294T299 255Q329 255 349 273T375 327Q378 343 382 348T394 353Q411 353 411 330Q411 308 403 289T379 256T344 233T300 225Q271 225 248 237T208 272T182 326T173 396Q173 434 182 466T208 521T248 557T298 570Q321 570 338 561T372 529H374V547Z"  />
<glyph unicode="&#xAA;" d="M326 499Q317 493 309 490T291 484T268 479T237 476Q207 473 192 470T165 458Q142 441 142 417Q142 394 159 379T204 364Q230 364 258 375T306 407Q317 419 321 432T326 469V499ZM355 429Q355 394 362 379T387 364Q400 364 406 371T414 397Q416 410 419 414T429 419Q443 419 443 400Q443 372 426 354T382 336Q358 336 345 349T325 395Q278 336 207 336Q165 336 139 358T113 415Q113 432 120 449T142 478Q157 491 179 497T240 505Q288 507 307 517T326 549Q326 574 304 588T244 603Q224 603 209 599T176 584Q192 571 192 555Q192 545 182 537T160 528Q147 528 139 537T131 560Q131 590 163 609T247 629Q355 629 355 532V429Z"  />
<glyph unicode="&#xAB;" d="M202 353Q233 398 259 398Q277 398 277 384Q277 375 271 365L167 218L268 68Q275 58 275 51Q275 39 258 39Q230 39 204 79L110 220L202 353ZM417 353Q448 397 474 397Q491 397 491 383Q491 378 486 370L382 218L483 67Q490 55 490 49Q490 38 471 38Q446 38 428 66L325 218L417 353Z"  />
<glyph unicode="&#xAC;" d="M124 275Q112 275 104 281T96 299Q96 310 104 316T124 323H503V125Q503 114 497 108T479 101Q468 101 462 107T455 125V275H124Z"  />
<glyph unicode="&#xAD;" d="M470 243Q481 243 489 237T497 219Q497 196 471 196H138Q126 196 120 203T114 220Q114 230 120 236T138 243H470Z"  />
<glyph unicode="&#xAE;" d="M247 422H267Q316 422 337 436T359 482Q359 541 292 541H247V422ZM218 541H210Q201 541 195 545T189 557Q189 571 214 571H288Q335 571 362 547T390 481Q390 452 377 434T331 398Q342 393 349 387T363 372T373 350T382 317Q387 291 393 283T416 269Q424 267 426 265T429 256Q429 241 407 241H385Q372 241 366 251T353 293L350 306Q332 391 286 391H247V271H261Q279 271 279 256Q279 239 255 239H209Q187 239 187 256Q187 271 208 271H218V541ZM314 627Q265 627 223 610T149 563T101 492T83 403Q83 356 100 316T148 245T218 197T306 179Q352 179 393 196T464 244T512 315T530 402Q530 447 513 488T465 559T396 608T314 627ZM298 657Q353 657 401 638T484 584T540 504T560 403Q560 350 540 304T486 224T405 169T306 149Q253 149 207 169T127 223T73 304T53 402Q53 453 73 499T126 580T204 636T298 657Z"  />
<glyph unicode="&#xAF;" d="M493 552V504H108L107 552H493Z"  />
<glyph unicode="&#xB0;" d="M305 626Q336 626 363 615T411 585T442 540T454 483Q454 453 443 427T412 381T366 350T310 339Q280 339 254 350T209 380T178 426T166 482Q166 511 177 537T208 583T252 614T305 626ZM314 583Q269 583 239 555T209 482Q209 461 217 443T238 411T270 389T310 381Q331 381 349 389T382 410T404 442T412 482Q412 502 404 520T383 553T351 575T314 583Z"  />
<glyph unicode="&#xB1;" d="M286 386Q286 397 292 404T310 411Q320 411 326 405T333 387V245H480Q504 245 504 222Q504 198 473 198H333V46H480Q503 46 503 24Q503 13 496 7T479 0H140Q114 0 114 23Q114 46 141 46H286V198H139Q114 198 114 220Q114 245 150 245H286V386Z"  />
<glyph unicode="&#xB2;" d="M318 324Q345 316 359 316Q396 316 416 364Q421 376 425 379T441 383Q462 383 462 365Q462 349 454 332T432 301Q403 273 364 273Q350 273 338 275T302 286Q282 293 271 295T248 297Q234 297 225 294T200 282Q190 277 185 275T175 273Q150 273 150 305Q150 327 160 349T189 388Q206 404 231 416T300 445Q355 464 375 480T396 520Q396 549 368 567T298 586Q270 586 247 578T223 559Q223 556 230 550Q242 538 242 527Q242 513 232 504T205 494Q186 494 174 506T161 537Q161 555 172 571T203 599T248 618T303 625Q334 625 359 618T404 596T433 563T444 522Q444 502 436 485T412 453Q398 439 377 430T316 407Q284 397 264 389T229 372T206 351T188 323L190 321Q215 338 247 338Q259 338 272 336T310 326L318 324Z"  />
<glyph unicode="&#xB3;" d="M223 557Q225 551 225 546Q225 515 194 515Q178 515 168 524T158 549Q158 565 169 579T200 603T244 620T299 626Q354 626 390 602T426 541Q426 519 413 503T368 467Q419 454 439 436T460 385Q460 361 448 341T413 306T359 283T291 274Q262 274 237 279T194 293T166 314T155 341Q155 356 166 366T194 376Q208 376 217 369T226 348Q226 342 225 339V337V336L224 335V333Q224 324 244 318T294 312Q348 312 383 331T418 383Q418 408 394 424T333 441H265Q241 441 241 459Q241 472 251 476T287 482Q385 486 385 535Q385 560 361 574T295 589Q266 589 243 582T220 566Q220 565 222 559L223 557Z"  />
<glyph unicode="&#xB4;" d="M435 651L305 522Q286 504 274 504Q256 504 256 523Q256 533 262 541L341 651H435Z"  />
<glyph unicode="&#xB5;" d="M59 393Q47 393 40 399T32 416Q32 427 40 433T62 440H179V104Q179 73 195 56T241 38Q273 38 308 58T377 117Q395 137 407 157T437 213V393H363Q351 393 344 399T336 415Q336 426 344 433T367 440H486V46H559Q568 46 575 40T582 24Q582 14 575 7T557 0H437V130H435Q425 114 417 103T402 82T387 65T371 49Q307 -7 240 -7Q204 -7 179 6V-156Q179 -169 173 -174T150 -179Q128 -179 128 -161V393H59Z"  />
<glyph unicode="&#xB6;" d="M219 343Q197 344 181 346T152 351T127 358T105 369Q70 389 52 423T33 502Q33 550 53 587T109 648Q162 680 257 680H592L582 634H464V0H418V634H265V0H219V343Z"  />
<glyph unicode="&#xB7;" d="M307 371Q334 371 352 354T370 310Q370 284 353 267T309 249Q284 249 266 266T248 310Q248 334 266 352T307 371Z"  />
<glyph unicode="&#xB8;" d="M317 6L307 -38Q387 -50 387 -109Q387 -147 353 -170T265 -193Q215 -193 215 -167Q215 -149 234 -149Q237 -149 239 -150H249L263 -151H264H266Q267 -151 268 -151T270 -152Q299 -152 316 -142T333 -114Q333 -78 269 -78H247L274 6H317Z"  />
<glyph unicode="&#xB9;" d="M197 578Q177 578 177 597Q177 617 199 617H328V321H404Q422 321 422 303Q422 284 396 284H206Q184 284 184 302Q184 321 209 321H287V578H197Z"  />
<glyph unicode="&#xBA;" d="M302 367Q347 367 374 399T401 484Q401 536 374 568T301 600Q258 600 233 569T207 484Q207 431 233 399T302 367ZM306 339Q244 339 211 376T178 483Q178 550 212 589T304 629Q362 629 395 591T428 486Q428 420 395 380T306 339Z"  />
<glyph unicode="&#xBB;" d="M339 368Q332 378 332 388Q332 400 349 400Q375 400 407 354L498 220L404 78Q379 40 352 40Q332 40 332 54Q332 62 339 70L441 220L339 368ZM129 368Q121 379 121 387Q121 400 138 400Q166 400 196 354L288 220L194 78Q169 40 142 40Q122 40 122 54Q122 61 128 70L231 220L129 368Z"  />
<glyph unicode="&#xBC;" d="M185 -45H334V110H324L185 -45ZM46 191Q38 191 33 197T27 211Q27 220 33 226T49 233H566Q574 233 579 227T585 211Q585 191 563 191H46ZM136 -86Q128 -86 126 -83T124 -68Q124 -61 126 -57T134 -46L300 138Q309 149 319 153T347 157Q364 157 370 154T377 140V-45H461Q470 -45 475 -51T481 -65Q481 -74 475 -80T460 -86H377V-143H422Q436 -143 441 -148T446 -164Q446 -186 427 -186H260Q244 -186 244 -166Q244 -143 269 -143H334V-86H136ZM197 572Q174 572 174 591Q174 613 199 613H333V318H414Q422 318 428 312T434 297Q434 289 428 284T414 278H201Q193 278 188 283T183 297Q183 306 189 312T206 318H289V572H197Z"  />
<glyph unicode="&#xBD;" d="M318 -147Q331 -151 341 -152T359 -154Q397 -154 416 -107Q421 -95 425 -92T441 -88Q462 -88 462 -106Q462 -124 454 -140T433 -169T401 -190T364 -198Q350 -198 338 -196T302 -185Q282 -178 271 -176T249 -174Q235 -174 226 -176T200 -188Q190 -194 185 -196T175 -198Q150 -198 150 -166Q150 -144 160 -122T189 -83Q206 -67 231 -55T300 -26Q355 -7 375 9T396 49Q396 78 368 97T298 116Q270 116 247 108T223 89Q223 86 230 79Q242 68 242 57Q242 43 232 34T205 24Q186 24 174 36T161 67Q161 85 172 101T203 129T248 148T303 155Q334 155 359 147T404 126T433 93T444 51Q444 31 436 14T412 -18Q398 -31 377 -40T316 -63Q284 -73 264 -81T229 -98T206 -120T188 -148L190 -150Q204 -140 217 -137T247 -133Q259 -133 272 -135T310 -144L318 -147ZM197 572Q174 572 174 591Q174 613 199 613H333V318H414Q422 318 428 312T434 297Q434 289 428 284T414 278H201Q193 278 188 283T183 297Q183 306 189 312T206 318H289V572H197ZM46 191Q38 191 33 197T27 211Q27 220 33 226T49 233H566Q574 233 579 227T585 212Q585 191 563 191H46Z"  />
<glyph unicode="&#xBE;" d="M185 -45H334V110H324L185 -45ZM46 191Q38 191 33 197T27 211Q27 220 33 226T49 233H566Q574 233 579 227T585 211Q585 191 563 191H46ZM136 -86Q128 -86 126 -83T124 -68Q124 -61 126 -57T134 -46L300 138Q309 149 319 153T347 157Q364 157 370 154T377 140V-45H461Q470 -45 475 -51T481 -65Q481 -74 475 -80T460 -86H377V-143H422Q436 -143 441 -148T446 -164Q446 -186 427 -186H260Q244 -186 244 -166Q244 -143 269 -143H334V-86H136ZM226 553Q228 545 228 542Q228 510 197 510Q181 510 171 520T161 545Q161 560 172 574T203 598T247 615T302 622Q358 622 393 598T429 536Q429 515 416 499T371 462Q422 449 442 431T463 380Q463 356 451 336T416 301T362 278T293 270Q235 270 197 288T158 336Q158 352 169 362T197 372Q211 372 220 364T229 343Q229 341 229 339T228 334V333V332L227 330V328Q227 319 247 313T297 307Q351 307 386 327T421 378Q421 403 397 419T336 436H268Q244 436 244 455Q244 467 254 472T290 478Q388 481 388 531Q388 555 364 569T298 584Q269 584 246 577T223 561Q223 562 225 556V555L226 553Z"  />
<glyph unicode="&#xBF;" d="M285 225Q285 255 309 255Q335 255 335 226V135Q335 119 325 112T283 97Q249 89 230 80T196 56Q160 20 160 -25Q160 -52 171 -75T201 -115T248 -141T307 -151Q330 -151 351 -147T387 -135T412 -119T422 -98Q422 -90 418 -86T400 -79Q353 -67 353 -28Q353 -3 372 15T417 33Q448 33 469 10T490 -49Q490 -81 476 -107T436 -154T377 -185T302 -196Q259 -196 223 -184T161 -148T121 -94T106 -24Q106 101 249 139Q271 145 278 150T285 166V225ZM309 321Q280 321 262 338T243 382Q243 408 261 425T306 443Q332 443 349 426T367 382Q367 356 350 339T309 321Z"  />
<glyph unicode="&#xC0;" d="M207 230H398L304 540H302L207 230ZM115 85Q126 115 138 150T164 222T189 297T213 367Q233 428 245 474T267 560L272 585Q278 612 284 619T305 627Q319 627 324 621T335 594V593V592Q335 591 335 591T336 590Q336 589 337 588V585L506 47H556Q568 47 575 41T583 24Q583 13 576 7T556 0H397Q386 0 378 6T370 24Q370 34 377 40T397 47H453L412 183H193L152 47H205Q217 47 224 41T232 24Q232 13 225 7T205 0H50Q38 0 31 6T23 24Q23 34 30 40T50 47H100L115 85ZM283 813L360 709Q371 693 371 682Q371 674 366 669T354 664Q341 664 323 682L191 813H283Z"  />
<glyph unicode="&#xC1;" d="M207 230H398L304 540H302L207 230ZM115 85Q126 115 138 150T164 222T189 297T213 367Q233 428 245 474T267 560L272 585Q278 612 284 619T305 627Q319 627 324 621T335 594V593V592Q335 591 335 591T336 590Q336 589 337 588V585L506 47H556Q568 47 575 41T583 24Q583 13 576 7T556 0H397Q386 0 378 6T370 24Q370 34 377 40T397 47H453L412 183H193L152 47H205Q217 47 224 41T232 24Q232 13 225 7T205 0H50Q38 0 31 6T23 24Q23 34 30 40T50 47H100L115 85ZM435 811L305 682Q286 664 274 664Q256 664 256 683Q256 693 262 701L341 811H435Z"  />
<glyph unicode="&#xC2;" d="M207 230H398L304 540H302L207 230ZM115 85Q126 115 138 150T164 222T189 297T213 367Q233 428 245 474T267 560L272 585Q278 612 284 619T305 627Q319 627 324 621T335 594V593V592Q335 591 335 591T336 590Q336 589 337 588V585L506 47H556Q568 47 575 41T583 24Q583 13 576 7T556 0H397Q386 0 378 6T370 24Q370 34 377 40T397 47H453L412 183H193L152 47H205Q217 47 224 41T232 24Q232 13 225 7T205 0H50Q38 0 31 6T23 24Q23 34 30 40T50 47H100L115 85ZM354 819L446 697Q455 685 455 676Q455 664 435 664Q425 664 418 667T401 681L314 770L222 680Q213 672 207 669T191 665Q171 665 171 677Q171 682 173 688T182 701L274 819H354Z"  />
<glyph unicode="&#xC3;" d="M207 230H398L304 540H302L207 230ZM115 85Q126 115 138 150T164 222T189 297T213 367Q233 428 245 474T267 560L272 585Q278 612 284 619T305 627Q319 627 324 621T335 594V593V592Q335 591 335 591T336 590Q336 589 337 588V585L506 47H556Q568 47 575 41T583 24Q583 13 576 7T556 0H397Q386 0 378 6T370 24Q370 34 377 40T397 47H453L412 183H193L152 47H205Q217 47 224 41T232 24Q232 13 225 7T205 0H50Q38 0 31 6T23 24Q23 34 30 40T50 47H100L115 85ZM98 669Q113 783 202 783Q227 783 254 774T323 743Q355 727 372 721T403 715Q426 715 439 729T461 776H502Q492 664 403 664Q379 664 354 672T288 702Q255 719 237 726T202 733Q155 733 143 669H98Z"  />
<glyph unicode="&#xC4;" d="M207 230H398L304 540H302L207 230ZM115 85Q126 115 138 150T164 222T189 297T213 367Q233 428 245 474T267 560L272 585Q278 612 284 619T305 627Q319 627 324 621T335 594V593V592Q335 591 335 591T336 590Q336 589 337 588V585L506 47H556Q568 47 575 41T583 24Q583 13 576 7T556 0H397Q386 0 378 6T370 24Q370 34 377 40T397 47H453L412 183H193L152 47H205Q217 47 224 41T232 24Q232 13 225 7T205 0H50Q38 0 31 6T23 24Q23 34 30 40T50 47H100L115 85ZM173 759Q194 759 207 746T221 713Q221 693 208 680T175 666Q156 666 143 679T129 713Q129 731 142 745T173 759ZM423 758Q443 758 457 745T471 712Q471 692 458 679T425 665Q405 665 392 678T378 711Q378 730 391 744T423 758Z"  />
<glyph unicode="&#xC5;" d="M207 230H398L304 540H302L207 230ZM115 85Q126 115 138 150T164 222T189 297T213 367Q233 428 245 474T267 560L272 585Q278 612 284 619T305 627Q319 627 324 621T335 594V593V592Q335 591 335 591T336 590Q336 589 337 588V585L506 47H556Q568 47 575 41T583 24Q583 13 576 7T556 0H397Q386 0 378 6T370 24Q370 34 377 40T397 47H453L412 183H193L152 47H205Q217 47 224 41T232 24Q232 13 225 7T205 0H50Q38 0 31 6T23 24Q23 34 30 40T50 47H100L115 85ZM297 855Q318 855 336 848T367 827T388 797T396 759Q396 719 369 692T301 664Q281 664 264 671T233 692T213 722T205 759Q205 778 212 795T232 826T262 847T297 855ZM302 813Q279 813 263 798T247 760Q247 737 262 722T300 706Q323 706 338 721T353 759Q353 781 338 797T302 813Z"  />
<glyph unicode="&#xC6;" d="M145 201H283V573H249L145 201ZM574 402Q574 392 568 386T552 379Q543 379 537 385T531 402V500Q531 532 508 552T448 573H330V339H342Q384 339 400 353T416 403V462Q416 488 437 488Q446 488 452 483T458 469V156Q458 137 438 137Q417 137 417 165V226Q417 295 352 295H330V44H442Q494 44 516 64T539 132V210Q539 236 560 236Q570 236 576 230T583 213V0H240Q209 0 209 23Q209 44 239 44H283V156H133L102 44H131Q161 44 161 22Q161 12 155 6T137 0H44Q17 0 17 22Q17 44 44 44H56L205 573H162Q132 573 132 596Q132 617 158 617H574V402Z"  />
<glyph unicode="&#xC7;" d="M461 575Q460 610 464 621T485 633Q508 633 508 608V386Q508 379 501 374T486 368Q475 368 469 376T460 406Q454 445 440 477T406 531T359 566T304 579Q266 579 234 559T179 500Q170 484 162 461T149 411T140 355T137 296Q137 225 154 170T205 80Q225 59 253 48T314 37Q437 37 469 179L470 185Q472 196 474 201T482 213Q487 217 492 217Q504 217 511 211T519 194Q519 177 514 157T499 116T478 76T451 43Q397 -11 315 -11Q257 -11 211 15T135 91Q114 127 102 187T89 311Q89 382 104 440T148 540T216 605T305 628Q353 628 390 606T459 534H461V575ZM317 6L307 -38Q387 -50 387 -109Q387 -147 353 -170T265 -193Q215 -193 215 -167Q215 -149 234 -149Q237 -149 239 -150H249L263 -151H264H266Q267 -151 268 -151T270 -152Q299 -152 316 -142T333 -114Q333 -78 269 -78H247L274 6H317Z"  />
<glyph unicode="&#xC8;" d="M104 569Q58 568 43 573T27 594Q27 604 34 610T54 617H558V397Q558 388 552 382T535 376Q510 376 510 423Q510 425 510 430T511 441V464Q511 522 488 546Q478 557 463 564T433 571H220V340H284Q375 340 373 439V451Q372 469 378 479T395 489Q404 489 410 482T417 464V154Q417 144 411 138T396 132Q384 132 379 143T373 183Q372 214 369 230T354 261Q345 275 324 284T282 293H220V47H448Q459 47 473 53T497 69Q508 81 513 101T519 154V170L518 182V187V194Q518 232 542 232Q552 232 559 226T566 211V0H53Q41 0 34 6T26 24Q26 34 33 40T53 47H170V571L104 569ZM283 813L360 709Q371 693 371 682Q371 674 366 669T354 664Q341 664 323 682L191 813H283Z"  />
<glyph unicode="&#xC9;" d="M104 569Q58 568 43 573T27 594Q27 604 34 610T54 617H558V397Q558 388 552 382T535 376Q510 376 510 423Q510 425 510 430T511 441V464Q511 522 488 546Q478 557 463 564T433 571H220V340H284Q375 340 373 439V451Q372 469 378 479T395 489Q404 489 410 482T417 464V154Q417 144 411 138T396 132Q384 132 379 143T373 183Q372 214 369 230T354 261Q345 275 324 284T282 293H220V47H448Q459 47 473 53T497 69Q508 81 513 101T519 154V170L518 182V187V194Q518 232 542 232Q552 232 559 226T566 211V0H53Q41 0 34 6T26 24Q26 34 33 40T53 47H170V571L104 569ZM435 811L305 682Q286 664 274 664Q256 664 256 683Q256 693 262 701L341 811H435Z"  />
<glyph unicode="&#xCA;" d="M104 569Q58 568 43 573T27 594Q27 604 34 610T54 617H558V397Q558 388 552 382T535 376Q510 376 510 423Q510 425 510 430T511 441V464Q511 522 488 546Q478 557 463 564T433 571H220V340H284Q375 340 373 439V451Q372 469 378 479T395 489Q404 489 410 482T417 464V154Q417 144 411 138T396 132Q384 132 379 143T373 183Q372 214 369 230T354 261Q345 275 324 284T282 293H220V47H448Q459 47 473 53T497 69Q508 81 513 101T519 154V170L518 182V187V194Q518 232 542 232Q552 232 559 226T566 211V0H53Q41 0 34 6T26 24Q26 34 33 40T53 47H170V571L104 569ZM354 819L446 697Q455 685 455 676Q455 664 435 664Q425 664 418 667T401 681L314 770L222 680Q213 672 207 669T191 665Q171 665 171 677Q171 682 173 688T182 701L274 819H354Z"  />
<glyph unicode="&#xCB;" d="M104 569Q58 568 43 573T27 594Q27 604 34 610T54 617H558V397Q558 388 552 382T535 376Q510 376 510 423Q510 425 510 430T511 441V464Q511 522 488 546Q478 557 463 564T433 571H220V340H284Q375 340 373 439V451Q372 469 378 479T395 489Q404 489 410 482T417 464V154Q417 144 411 138T396 132Q384 132 379 143T373 183Q372 214 369 230T354 261Q345 275 324 284T282 293H220V47H448Q459 47 473 53T497 69Q508 81 513 101T519 154V170L518 182V187V194Q518 232 542 232Q552 232 559 226T566 211V0H53Q41 0 34 6T26 24Q26 34 33 40T53 47H170V571L104 569ZM173 759Q194 759 207 746T221 713Q221 693 208 680T175 666Q156 666 143 679T129 713Q129 731 142 745T173 759ZM423 758Q443 758 457 745T471 712Q471 692 458 679T425 665Q405 665 392 678T378 711Q378 730 391 744T423 758Z"  />
<glyph unicode="&#xCC;" d="M199 569Q190 569 180 569T160 569T142 570T130 572Q111 575 111 594Q111 604 118 610T138 617H473Q484 617 492 611T500 594Q500 583 492 577T473 571H329V47H471Q483 47 490 41T498 24Q498 13 491 7T471 0H135Q124 0 117 6T109 23Q109 34 116 40T136 47H279V571L199 569ZM283 813L360 709Q371 693 371 682Q371 674 366 669T354 664Q341 664 323 682L191 813H283Z"  />
<glyph unicode="&#xCD;" d="M199 569Q190 569 180 569T160 569T142 570T130 572Q111 575 111 594Q111 604 118 610T138 617H473Q484 617 492 611T500 594Q500 583 492 577T473 571H329V47H471Q483 47 490 41T498 24Q498 13 491 7T471 0H135Q124 0 117 6T109 23Q109 34 116 40T136 47H279V571L199 569ZM435 811L305 682Q286 664 274 664Q256 664 256 683Q256 693 262 701L341 811H435Z"  />
<glyph unicode="&#xCE;" d="M199 569Q190 569 180 569T160 569T142 570T130 572Q111 575 111 594Q111 604 118 610T138 617H473Q484 617 492 611T500 594Q500 583 492 577T473 571H329V47H471Q483 47 490 41T498 24Q498 13 491 7T471 0H135Q124 0 117 6T109 23Q109 34 116 40T136 47H279V571L199 569ZM354 819L446 697Q455 685 455 676Q455 664 435 664Q425 664 418 667T401 681L314 770L222 680Q213 672 207 669T191 665Q171 665 171 677Q171 682 173 688T182 701L274 819H354Z"  />
<glyph unicode="&#xCF;" d="M199 569Q190 569 180 569T160 569T142 570T130 572Q111 575 111 594Q111 604 118 610T138 617H473Q484 617 492 611T500 594Q500 583 492 577T473 571H329V47H471Q483 47 490 41T498 24Q498 13 491 7T471 0H135Q124 0 117 6T109 23Q109 34 116 40T136 47H279V571L199 569ZM173 759Q194 759 207 746T221 713Q221 693 208 680T175 666Q156 666 143 679T129 713Q129 731 142 745T173 759ZM423 758Q443 758 457 745T471 712Q471 692 458 679T425 665Q405 665 392 678T378 711Q378 730 391 744T423 758Z"  />
<glyph unicode="&#xD0;" d="M214 331H380Q406 331 406 309Q406 284 376 284H214V47H253Q330 47 375 59T450 99Q482 130 496 181T511 312Q511 390 497 438T451 518Q424 545 387 557T293 569H214V331ZM62 569Q25 569 25 595Q25 616 65 616H303Q422 616 487 552Q527 512 545 455T563 310Q563 222 544 163T484 65Q465 46 443 34T392 14T325 3T233 0H53Q25 0 25 23Q25 47 66 47H164V284H49Q38 284 32 289T25 306Q25 317 34 324T58 331H164V569H62Z"  />
<glyph unicode="&#xD1;" d="M82 570Q47 569 35 574T22 594Q22 605 29 611T49 617H199L372 205Q374 200 376 194T382 181L390 162L401 134L411 110L420 87L440 35L442 37L438 114L435 192V571H342Q330 571 323 577T315 594Q315 605 322 611T342 617H562Q574 617 581 611T589 594Q589 584 582 578T562 571H483V0H410L257 358L225 434Q218 451 208 475T190 519L184 534Q183 538 182 541T180 546L171 573H169V562Q169 542 169 522T171 492V484L173 454V453V47H281Q293 47 300 41T308 24Q308 13 301 7T281 0H47Q36 0 28 6T20 24Q20 35 27 41T47 47H126V571L82 570ZM98 669Q113 783 202 783Q227 783 254 774T323 743Q355 727 372 721T403 715Q426 715 439 729T461 776H502Q492 664 403 664Q379 664 354 672T288 702Q255 719 237 726T202 733Q155 733 143 669H98Z"  />
<glyph unicode="&#xD2;" d="M308 581Q265 581 231 562T173 507T136 420T123 304Q123 244 136 195T173 110T230 56T304 36Q389 36 437 109T485 313Q485 490 390 554Q372 567 350 574T308 581ZM299 629Q353 629 397 607T472 543T519 442T536 308Q536 236 520 177T473 76T400 12T305 -11Q252 -11 209 12T136 77T88 178T71 309Q71 407 101 479T188 590Q214 608 243 618T299 629ZM283 813L360 709Q371 693 371 682Q371 674 366 669T354 664Q341 664 323 682L191 813H283Z"  />
<glyph unicode="&#xD3;" d="M308 581Q265 581 231 562T173 507T136 420T123 304Q123 244 136 195T173 110T230 56T304 36Q389 36 437 109T485 313Q485 490 390 554Q372 567 350 574T308 581ZM299 629Q353 629 397 607T472 543T519 442T536 308Q536 236 520 177T473 76T400 12T305 -11Q252 -11 209 12T136 77T88 178T71 309Q71 407 101 479T188 590Q214 608 243 618T299 629ZM435 811L305 682Q286 664 274 664Q256 664 256 683Q256 693 262 701L341 811H435Z"  />
<glyph unicode="&#xD4;" d="M308 581Q265 581 231 562T173 507T136 420T123 304Q123 244 136 195T173 110T230 56T304 36Q389 36 437 109T485 313Q485 490 390 554Q372 567 350 574T308 581ZM299 629Q353 629 397 607T472 543T519 442T536 308Q536 236 520 177T473 76T400 12T305 -11Q252 -11 209 12T136 77T88 178T71 309Q71 407 101 479T188 590Q214 608 243 618T299 629ZM354 819L446 697Q455 685 455 676Q455 664 435 664Q425 664 418 667T401 681L314 770L222 680Q213 672 207 669T191 665Q171 665 171 677Q171 682 173 688T182 701L274 819H354Z"  />
<glyph unicode="&#xD5;" d="M308 581Q265 581 231 562T173 507T136 420T123 304Q123 244 136 195T173 110T230 56T304 36Q389 36 437 109T485 313Q485 490 390 554Q372 567 350 574T308 581ZM299 629Q353 629 397 607T472 543T519 442T536 308Q536 236 520 177T473 76T400 12T305 -11Q252 -11 209 12T136 77T88 178T71 309Q71 407 101 479T188 590Q214 608 243 618T299 629ZM98 669Q113 783 202 783Q227 783 254 774T323 743Q355 727 372 721T403 715Q426 715 439 729T461 776H502Q492 664 403 664Q379 664 354 672T288 702Q255 719 237 726T202 733Q155 733 143 669H98Z"  />
<glyph unicode="&#xD6;" d="M308 581Q265 581 231 562T173 507T136 420T123 304Q123 244 136 195T173 110T230 56T304 36Q389 36 437 109T485 313Q485 490 390 554Q372 567 350 574T308 581ZM299 629Q353 629 397 607T472 543T519 442T536 308Q536 236 520 177T473 76T400 12T305 -11Q252 -11 209 12T136 77T88 178T71 309Q71 407 101 479T188 590Q214 608 243 618T299 629ZM173 759Q194 759 207 746T221 713Q221 693 208 680T175 666Q156 666 143 679T129 713Q129 731 142 745T173 759ZM423 758Q443 758 457 745T471 712Q471 692 458 679T425 665Q405 665 392 678T378 711Q378 730 391 744T423 758Z"  />
<glyph unicode="&#xD7;" d="M126 374Q115 383 115 395Q115 404 122 411T139 418Q152 418 165 404L309 258L452 403Q466 417 480 417Q489 417 495 411T502 395Q502 383 488 369L343 223L495 67Q501 61 501 52Q501 43 495 36T479 28Q467 28 451 44L309 188L164 43Q151 30 139 30Q130 30 122 36T114 51Q114 62 134 82L274 223L126 374Z"  />
<glyph unicode="&#xD8;" d="M441 501Q410 543 379 561T308 580Q266 580 232 561T175 505T138 417T125 300Q125 281 126 266T130 234T137 200T149 158L441 501ZM172 113Q204 71 235 54T306 37Q391 37 438 109T486 313Q486 334 485 352T481 386T474 419T463 455L172 113ZM114 116Q103 141 95 163T83 208T76 254T74 306Q74 378 91 437T138 539T212 605T308 629Q358 629 395 609T475 540L547 623Q553 630 562 630Q573 630 581 623T590 608Q590 603 585 598L500 498Q520 452 528 411T537 314Q537 249 525 193T490 98Q461 47 412 18T305 -11Q256 -11 218 8T140 74L67 -10Q58 -21 47 -21Q38 -21 32 -14T25 2Q25 13 32 20L114 116Z"  />
<glyph unicode="&#xD9;" d="M77 570Q45 569 33 574T21 594Q21 604 28 610T48 617H239Q251 617 258 611T266 594Q266 583 258 577T239 571H165V176Q165 109 200 72T301 35Q369 35 407 75T446 186V571H370Q358 571 351 577T343 594Q343 604 350 610T370 617H561Q573 617 580 611T588 594Q588 583 581 577T561 571H496V210Q496 103 446 46T300 -11Q211 -11 163 40T115 185V571L77 570ZM283 813L360 709Q371 693 371 682Q371 674 366 669T354 664Q341 664 323 682L191 813H283Z"  />
<glyph unicode="&#xDA;" d="M77 570Q45 569 33 574T21 594Q21 604 28 610T48 617H239Q251 617 258 611T266 594Q266 583 258 577T239 571H165V176Q165 109 200 72T301 35Q369 35 407 75T446 186V571H370Q358 571 351 577T343 594Q343 604 350 610T370 617H561Q573 617 580 611T588 594Q588 583 581 577T561 571H496V210Q496 103 446 46T300 -11Q211 -11 163 40T115 185V571L77 570ZM435 811L305 682Q286 664 274 664Q256 664 256 683Q256 693 262 701L341 811H435Z"  />
<glyph unicode="&#xDB;" d="M77 570Q45 569 33 574T21 594Q21 604 28 610T48 617H239Q251 617 258 611T266 594Q266 583 258 577T239 571H165V176Q165 109 200 72T301 35Q369 35 407 75T446 186V571H370Q358 571 351 577T343 594Q343 604 350 610T370 617H561Q573 617 580 611T588 594Q588 583 581 577T561 571H496V210Q496 103 446 46T300 -11Q211 -11 163 40T115 185V571L77 570ZM354 819L446 697Q455 685 455 676Q455 664 435 664Q425 664 418 667T401 681L314 770L222 680Q213 672 207 669T191 665Q171 665 171 677Q171 682 173 688T182 701L274 819H354Z"  />
<glyph unicode="&#xDC;" d="M77 570Q45 569 33 574T21 594Q21 604 28 610T48 617H239Q251 617 258 611T266 594Q266 583 258 577T239 571H165V176Q165 109 200 72T301 35Q369 35 407 75T446 186V571H370Q358 571 351 577T343 594Q343 604 350 610T370 617H561Q573 617 580 611T588 594Q588 583 581 577T561 571H496V210Q496 103 446 46T300 -11Q211 -11 163 40T115 185V571L77 570ZM173 759Q194 759 207 746T221 713Q221 693 208 680T175 666Q156 666 143 679T129 713Q129 731 142 745T173 759ZM423 758Q443 758 457 745T471 712Q471 692 458 679T425 665Q405 665 392 678T378 711Q378 730 391 744T423 758Z"  />
<glyph unicode="&#xDD;" d="M74 570Q45 569 34 574T23 594Q23 604 30 610T50 617H226Q238 617 245 611T253 594Q253 583 246 577T226 571H160L308 293L455 571H377Q365 571 358 577T350 594Q350 604 357 610T377 617H564Q575 617 582 611T590 594Q590 583 583 577T564 571H508L332 238V47H446Q458 47 465 41T473 24Q473 13 466 7T446 0H166Q154 0 147 6T139 23Q139 34 146 40T166 47H281V240L106 571L74 570ZM435 811L305 682Q286 664 274 664Q256 664 256 683Q256 693 262 701L341 811H435Z"  />
<glyph unicode="&#xDE;" d="M239 215H380Q434 215 462 243T491 324Q491 430 369 430H239V215ZM81 565Q50 565 50 588Q50 598 56 604T74 610H354Q367 610 372 606T377 589Q377 566 346 566H239V475H391Q459 475 498 434T538 323Q538 251 495 212T374 172H239V43H353Q380 43 380 22Q380 0 348 0H87Q55 0 55 21Q55 43 95 43H191V565H81Z"  />
<glyph unicode="&#xDF;" d="M116 429Q116 484 128 520T167 581Q192 604 229 616T310 628Q351 628 385 617T444 587T482 540T496 480Q496 439 477 414T410 368Q431 360 442 355T464 340Q529 289 529 180Q529 137 518 102T487 43T437 5T372 -9Q321 -9 289 18T256 89Q256 118 270 135T309 152Q329 152 342 138T355 102Q355 72 321 56Q335 32 371 32Q418 32 447 71T476 174Q476 252 439 295T336 339H323Q296 339 296 366Q296 392 318 392H340Q386 392 414 416T442 481Q442 529 406 557T307 585Q168 585 168 449V46H221Q249 46 249 23Q249 13 241 7T221 0H60Q47 0 39 6T31 22Q31 33 39 39T58 46H116V429Z"  />
<glyph unicode="&#xE0;" d="M399 246Q391 240 386 237T375 231Q361 224 333 219T267 211Q176 203 150 183Q116 159 116 121Q116 84 142 61T211 37Q245 37 278 49T339 80T382 125T399 175V246ZM531 95Q531 123 552 123Q576 123 576 88Q576 45 551 18T484 -9Q404 -9 399 80Q355 34 311 13T216 -9Q183 -9 156 0T109 26T79 66T68 118Q68 153 82 181T124 226Q167 251 266 256Q339 259 368 274T397 324Q397 353 375 374Q359 390 334 397T269 404Q230 404 203 398T176 382Q176 380 181 373Q194 360 194 341Q194 319 181 305T145 291Q123 291 110 305T97 343Q97 391 146 420T275 449Q360 449 404 414T449 309V97Q449 38 490 38Q528 38 531 89V95ZM283 653L360 549Q371 533 371 522Q371 514 366 509T354 504Q341 504 323 522L191 653H283Z"  />
<glyph unicode="&#xE1;" d="M399 246Q391 240 386 237T375 231Q361 224 333 219T267 211Q176 203 150 183Q116 159 116 121Q116 84 142 61T211 37Q245 37 278 49T339 80T382 125T399 175V246ZM531 95Q531 123 552 123Q576 123 576 88Q576 45 551 18T484 -9Q404 -9 399 80Q355 34 311 13T216 -9Q183 -9 156 0T109 26T79 66T68 118Q68 153 82 181T124 226Q167 251 266 256Q339 259 368 274T397 324Q397 353 375 374Q359 390 334 397T269 404Q230 404 203 398T176 382Q176 380 181 373Q194 360 194 341Q194 319 181 305T145 291Q123 291 110 305T97 343Q97 391 146 420T275 449Q360 449 404 414T449 309V97Q449 38 490 38Q528 38 531 89V95ZM435 651L305 522Q286 504 274 504Q256 504 256 523Q256 533 262 541L341 651H435Z"  />
<glyph unicode="&#xE2;" d="M399 246Q391 240 386 237T375 231Q361 224 333 219T267 211Q176 203 150 183Q116 159 116 121Q116 84 142 61T211 37Q245 37 278 49T339 80T382 125T399 175V246ZM531 95Q531 123 552 123Q576 123 576 88Q576 45 551 18T484 -9Q404 -9 399 80Q355 34 311 13T216 -9Q183 -9 156 0T109 26T79 66T68 118Q68 153 82 181T124 226Q167 251 266 256Q339 259 368 274T397 324Q397 353 375 374Q359 390 334 397T269 404Q230 404 203 398T176 382Q176 380 181 373Q194 360 194 341Q194 319 181 305T145 291Q123 291 110 305T97 343Q97 391 146 420T275 449Q360 449 404 414T449 309V97Q449 38 490 38Q528 38 531 89V95ZM354 659L446 537Q455 525 455 516Q455 504 435 504Q425 504 418 507T401 521L314 610L222 520Q213 512 207 509T191 505Q171 505 171 517Q171 522 173 528T182 541L274 659H354Z"  />
<glyph unicode="&#xE3;" d="M399 246Q391 240 386 237T375 231Q361 224 333 219T267 211Q176 203 150 183Q116 159 116 121Q116 84 142 61T211 37Q245 37 278 49T339 80T382 125T399 175V246ZM531 95Q531 123 552 123Q576 123 576 88Q576 45 551 18T484 -9Q404 -9 399 80Q355 34 311 13T216 -9Q183 -9 156 0T109 26T79 66T68 118Q68 153 82 181T124 226Q167 251 266 256Q339 259 368 274T397 324Q397 353 375 374Q359 390 334 397T269 404Q230 404 203 398T176 382Q176 380 181 373Q194 360 194 341Q194 319 181 305T145 291Q123 291 110 305T97 343Q97 391 146 420T275 449Q360 449 404 414T449 309V97Q449 38 490 38Q528 38 531 89V95ZM98 509Q113 623 202 623Q227 623 254 614T323 583Q355 567 372 561T403 555Q426 555 439 569T461 616H502Q492 504 403 504Q379 504 354 512T288 542Q255 559 237 566T202 573Q155 573 143 509H98Z"  />
<glyph unicode="&#xE4;" d="M399 246Q391 240 386 237T375 231Q361 224 333 219T267 211Q176 203 150 183Q116 159 116 121Q116 84 142 61T211 37Q245 37 278 49T339 80T382 125T399 175V246ZM531 95Q531 123 552 123Q576 123 576 88Q576 45 551 18T484 -9Q404 -9 399 80Q355 34 311 13T216 -9Q183 -9 156 0T109 26T79 66T68 118Q68 153 82 181T124 226Q167 251 266 256Q339 259 368 274T397 324Q397 353 375 374Q359 390 334 397T269 404Q230 404 203 398T176 382Q176 380 181 373Q194 360 194 341Q194 319 181 305T145 291Q123 291 110 305T97 343Q97 391 146 420T275 449Q360 449 404 414T449 309V97Q449 38 490 38Q528 38 531 89V95ZM173 599Q194 599 207 586T221 553Q221 533 208 520T175 506Q156 506 143 519T129 553Q129 571 142 585T173 599ZM423 598Q443 598 457 585T471 552Q471 532 458 519T425 505Q405 505 392 518T378 551Q378 570 391 584T423 598Z"  />
<glyph unicode="&#xE5;" d="M399 246Q391 240 386 237T375 231Q361 224 333 219T267 211Q176 203 150 183Q116 159 116 121Q116 84 142 61T211 37Q245 37 278 49T339 80T382 125T399 175V246ZM531 95Q531 123 552 123Q576 123 576 88Q576 45 551 18T484 -9Q404 -9 399 80Q355 34 311 13T216 -9Q183 -9 156 0T109 26T79 66T68 118Q68 153 82 181T124 226Q167 251 266 256Q339 259 368 274T397 324Q397 353 375 374Q359 390 334 397T269 404Q230 404 203 398T176 382Q176 380 181 373Q194 360 194 341Q194 319 181 305T145 291Q123 291 110 305T97 343Q97 391 146 420T275 449Q360 449 404 414T449 309V97Q449 38 490 38Q528 38 531 89V95ZM297 695Q318 695 336 688T367 667T388 637T396 599Q396 559 369 532T301 504Q281 504 264 511T233 532T213 562T205 599Q205 618 212 635T232 666T262 687T297 695ZM302 653Q279 653 263 638T247 600Q247 577 262 562T300 546Q323 546 338 561T353 599Q353 621 338 637T302 653Z"  />
<glyph unicode="&#xE6;" d="M529 260Q520 403 424 403Q382 403 356 376T330 307V260H529ZM282 244Q273 238 266 234T249 226T226 219T194 211Q157 203 137 196T102 177Q72 153 72 116Q72 80 99 57T167 33Q217 33 249 65T282 147V244ZM330 145Q330 93 356 63T427 33Q508 33 532 121Q537 141 543 148T561 155Q581 155 581 135Q581 108 569 80T536 31Q494 -11 427 -11Q383 -11 356 5T303 63Q274 22 243 5T166 -12Q103 -12 64 23T25 117Q25 175 66 211Q84 227 108 236T178 254Q196 257 208 260T229 266T245 272T259 281Q282 299 282 331Q282 363 256 382T184 402Q155 402 132 395T109 376Q109 375 113 371H114Q124 364 127 358T131 343Q131 325 119 313T87 300Q65 300 51 313T37 346Q37 367 49 385T82 418T130 440T190 448Q232 448 258 435T308 387Q350 448 422 448Q457 448 487 433T538 390T572 324T584 240V216H330V145Z"  />
<glyph unicode="&#xE7;" d="M467 128Q473 142 478 145T495 149Q519 149 519 134Q519 118 506 93T473 48Q418 -10 327 -10Q279 -10 241 6T174 52T131 124T116 218Q116 270 131 312T175 385T242 433T328 450Q364 450 396 440T453 412T492 371T506 321Q506 292 491 274T452 255Q429 255 415 271T400 311Q400 339 423 356Q431 363 431 366Q431 373 417 382Q401 393 378 399T332 406Q296 406 266 392T215 354T181 295T168 221Q168 180 180 147T214 89T266 51T332 37Q377 37 411 59T466 125L467 128ZM317 6L307 -38Q387 -50 387 -109Q387 -147 353 -170T265 -193Q215 -193 215 -167Q215 -149 234 -149Q237 -149 239 -150H249L263 -151H264H266Q267 -151 268 -151T270 -152Q299 -152 316 -142T333 -114Q333 -78 269 -78H247L274 6H317Z"  />
<glyph unicode="&#xE8;" d="M455 264Q449 299 441 319T417 357Q396 380 367 392T303 404Q181 404 156 264H455ZM152 200Q152 165 164 135T197 83T248 49T313 36Q407 36 455 124Q460 134 465 137T480 141Q502 141 502 124Q502 110 490 89T459 48Q400 -11 312 -11Q264 -11 225 5T159 52T116 124T100 218Q100 269 115 311T157 385T223 433T306 450Q417 450 475 354Q492 325 499 295T507 217H152V200ZM283 653L360 549Q371 533 371 522Q371 514 366 509T354 504Q341 504 323 522L191 653H283Z"  />
<glyph unicode="&#xE9;" d="M455 264Q449 299 441 319T417 357Q396 380 367 392T303 404Q181 404 156 264H455ZM152 200Q152 165 164 135T197 83T248 49T313 36Q407 36 455 124Q460 134 465 137T480 141Q502 141 502 124Q502 110 490 89T459 48Q400 -11 312 -11Q264 -11 225 5T159 52T116 124T100 218Q100 269 115 311T157 385T223 433T306 450Q417 450 475 354Q492 325 499 295T507 217H152V200ZM435 651L305 522Q286 504 274 504Q256 504 256 523Q256 533 262 541L341 651H435Z"  />
<glyph unicode="&#xEA;" d="M455 264Q449 299 441 319T417 357Q396 380 367 392T303 404Q181 404 156 264H455ZM152 200Q152 165 164 135T197 83T248 49T313 36Q407 36 455 124Q460 134 465 137T480 141Q502 141 502 124Q502 110 490 89T459 48Q400 -11 312 -11Q264 -11 225 5T159 52T116 124T100 218Q100 269 115 311T157 385T223 433T306 450Q417 450 475 354Q492 325 499 295T507 217H152V200ZM354 659L446 537Q455 525 455 516Q455 504 435 504Q425 504 418 507T401 521L314 610L222 520Q213 512 207 509T191 505Q171 505 171 517Q171 522 173 528T182 541L274 659H354Z"  />
<glyph unicode="&#xEB;" d="M455 264Q449 299 441 319T417 357Q396 380 367 392T303 404Q181 404 156 264H455ZM152 200Q152 165 164 135T197 83T248 49T313 36Q407 36 455 124Q460 134 465 137T480 141Q502 141 502 124Q502 110 490 89T459 48Q400 -11 312 -11Q264 -11 225 5T159 52T116 124T100 218Q100 269 115 311T157 385T223 433T306 450Q417 450 475 354Q492 325 499 295T507 217H152V200ZM173 599Q194 599 207 586T221 553Q221 533 208 520T175 506Q156 506 143 519T129 553Q129 571 142 585T173 599ZM423 598Q443 598 457 585T471 552Q471 532 458 519T425 505Q405 505 392 518T378 551Q378 570 391 584T423 598Z"  />
<glyph unicode="&#xEC;" d="M143 393Q131 393 124 400T116 418Q116 441 145 441H337V48H467Q478 48 486 41T494 23Q494 12 488 6T470 0H147Q136 0 129 6T121 24Q121 35 127 41T145 48H286V393H143ZM283 653L360 549Q371 533 371 522Q371 514 366 509T354 504Q341 504 323 522L191 653H283Z"  />
<glyph unicode="&#xED;" d="M143 393Q131 393 124 400T116 418Q116 441 145 441H337V48H467Q478 48 486 41T494 23Q494 12 488 6T470 0H147Q136 0 129 6T121 24Q121 35 127 41T145 48H286V393H143ZM435 651L305 522Q286 504 274 504Q256 504 256 523Q256 533 262 541L341 651H435Z"  />
<glyph unicode="&#xEE;" d="M143 393Q131 393 124 400T116 418Q116 441 145 441H337V48H467Q478 48 486 41T494 23Q494 12 488 6T470 0H147Q136 0 129 6T121 24Q121 35 127 41T145 48H286V393H143ZM354 659L446 537Q455 525 455 516Q455 504 435 504Q425 504 418 507T401 521L314 610L222 520Q213 512 207 509T191 505Q171 505 171 517Q171 522 173 528T182 541L274 659H354Z"  />
<glyph unicode="&#xEF;" d="M143 393Q131 393 124 400T116 418Q116 441 145 441H337V48H467Q478 48 486 41T494 23Q494 12 488 6T470 0H147Q136 0 129 6T121 24Q121 35 127 41T145 48H286V393H143ZM173 599Q194 599 207 586T221 553Q221 533 208 520T175 506Q156 506 143 519T129 553Q129 571 142 585T173 599ZM423 598Q443 598 457 585T471 552Q471 532 458 519T425 505Q405 505 392 518T378 551Q378 570 391 584T423 598Z"  />
<glyph unicode="&#xF0;" d="M317 401Q282 401 254 387T204 348T172 288T160 212Q160 173 171 140T201 82T248 45T308 31Q341 31 368 45T416 83T447 142T458 217Q458 256 447 290T418 348T373 387T317 401ZM236 590Q227 597 227 610Q227 619 233 625T248 631Q257 631 268 626T291 612L352 562L459 584L469 585Q483 587 493 580T503 561Q503 550 494 544T464 533L384 516Q449 431 478 361T507 222Q507 173 492 130T449 56T386 6T307 -13Q266 -13 231 4T169 52T127 123T112 211Q112 259 127 302T169 376T231 426T307 445Q327 445 343 441T384 423L386 425Q369 450 355 468T324 504L201 480L185 479Q172 477 164 483T156 499Q156 521 191 529L282 548L236 590Z"  />
<glyph unicode="&#xF1;" d="M183 315H185Q236 385 283 416T382 448Q435 448 463 415T492 318V47H557Q569 47 576 41T584 24Q584 13 577 7T557 0H380Q368 0 361 6T353 24Q353 34 360 40T380 47H443V301Q443 401 378 401Q348 401 316 385T252 336Q229 313 215 290T183 229V47H251Q262 47 270 41T278 24Q278 13 270 7T251 0H68Q56 0 49 6T41 24Q41 34 48 40T68 47H133V393H62Q51 393 43 399T35 417Q35 428 42 434T62 440H183V315ZM98 509Q113 623 202 623Q227 623 254 614T323 583Q355 567 372 561T403 555Q426 555 439 569T461 616H502Q492 504 403 504Q379 504 354 512T288 542Q255 559 237 566T202 573Q155 573 143 509H98Z"  />
<glyph unicode="&#xF2;" d="M304 450Q349 450 386 433T451 386T493 313T508 221Q508 172 493 130T451 56T388 8T310 -10Q266 -10 229 7T165 54T123 126T108 218Q108 266 123 308T165 382T227 432T304 450ZM314 402Q243 402 201 352T158 219Q158 179 169 146T200 88T248 50T309 36Q342 36 369 49T417 87T448 145T459 219Q459 258 448 291T418 349T372 388T314 402ZM283 653L360 549Q371 533 371 522Q371 514 366 509T354 504Q341 504 323 522L191 653H283Z"  />
<glyph unicode="&#xF3;" d="M304 450Q349 450 386 433T451 386T493 313T508 221Q508 172 493 130T451 56T388 8T310 -10Q266 -10 229 7T165 54T123 126T108 218Q108 266 123 308T165 382T227 432T304 450ZM314 402Q243 402 201 352T158 219Q158 179 169 146T200 88T248 50T309 36Q342 36 369 49T417 87T448 145T459 219Q459 258 448 291T418 349T372 388T314 402ZM435 651L305 522Q286 504 274 504Q256 504 256 523Q256 533 262 541L341 651H435Z"  />
<glyph unicode="&#xF4;" d="M304 450Q349 450 386 433T451 386T493 313T508 221Q508 172 493 130T451 56T388 8T310 -10Q266 -10 229 7T165 54T123 126T108 218Q108 266 123 308T165 382T227 432T304 450ZM314 402Q243 402 201 352T158 219Q158 179 169 146T200 88T248 50T309 36Q342 36 369 49T417 87T448 145T459 219Q459 258 448 291T418 349T372 388T314 402ZM354 659L446 537Q455 525 455 516Q455 504 435 504Q425 504 418 507T401 521L314 610L222 520Q213 512 207 509T191 505Q171 505 171 517Q171 522 173 528T182 541L274 659H354Z"  />
<glyph unicode="&#xF5;" d="M304 450Q349 450 386 433T451 386T493 313T508 221Q508 172 493 130T451 56T388 8T310 -10Q266 -10 229 7T165 54T123 126T108 218Q108 266 123 308T165 382T227 432T304 450ZM314 402Q243 402 201 352T158 219Q158 179 169 146T200 88T248 50T309 36Q342 36 369 49T417 87T448 145T459 219Q459 258 448 291T418 349T372 388T314 402ZM98 509Q113 623 202 623Q227 623 254 614T323 583Q355 567 372 561T403 555Q426 555 439 569T461 616H502Q492 504 403 504Q379 504 354 512T288 542Q255 559 237 566T202 573Q155 573 143 509H98Z"  />
<glyph unicode="&#xF6;" d="M304 450Q349 450 386 433T451 386T493 313T508 221Q508 172 493 130T451 56T388 8T310 -10Q266 -10 229 7T165 54T123 126T108 218Q108 266 123 308T165 382T227 432T304 450ZM314 402Q243 402 201 352T158 219Q158 179 169 146T200 88T248 50T309 36Q342 36 369 49T417 87T448 145T459 219Q459 258 448 291T418 349T372 388T314 402ZM173 599Q194 599 207 586T221 553Q221 533 208 520T175 506Q156 506 143 519T129 553Q129 571 142 585T173 599ZM423 598Q443 598 457 585T471 552Q471 532 458 519T425 505Q405 505 392 518T378 551Q378 570 391 584T423 598Z"  />
<glyph unicode="&#xF7;" d="M309 412Q329 412 343 399T357 366Q357 346 344 333T311 319Q291 319 278 332T264 366Q264 384 277 398T309 412ZM481 241Q491 241 498 235T505 218Q505 195 480 195H138Q115 195 115 219Q115 241 138 241H481ZM309 118Q329 118 342 105T356 72Q356 53 343 40T310 26Q291 26 278 39T264 72Q264 90 277 104T309 118Z"  />
<glyph unicode="&#xF8;" d="M395 368Q369 388 349 395T304 403Q270 403 243 390T195 352T164 293T153 217Q153 187 158 164T178 112L395 368ZM208 75Q252 37 304 37Q336 37 363 50T410 88T441 145T452 219Q452 251 446 278T424 331L208 75ZM146 73Q123 112 113 145T103 218Q103 268 118 310T159 384T222 432T302 450Q336 450 364 440T427 405L459 442Q470 455 482 455Q491 455 497 449T503 432Q503 421 492 408L458 370Q481 332 491 299T501 224Q501 173 486 130T445 57T383 9T303 -9Q268 -9 239 2T177 38L146 3Q140 -4 132 -4Q124 -4 118 3T112 21Q112 30 118 38L146 73Z"  />
<glyph unicode="&#xF9;" d="M90 393Q56 392 44 397T32 417Q32 428 40 434T59 440H180V106Q180 74 196 56T240 38Q302 38 362 100Q382 120 398 143T433 203L435 208L436 210Q436 210 437 212V393H364Q352 393 345 399T337 417Q337 428 344 434T364 440H486V47H555Q567 47 574 41T582 24Q582 13 575 7T555 0H437V130H435Q387 57 342 25T239 -7Q187 -7 158 22T129 102V394L90 393ZM283 653L360 549Q371 533 371 522Q371 514 366 509T354 504Q341 504 323 522L191 653H283Z"  />
<glyph unicode="&#xFA;" d="M90 393Q56 392 44 397T32 417Q32 428 40 434T59 440H180V106Q180 74 196 56T240 38Q302 38 362 100Q382 120 398 143T433 203L435 208L436 210Q436 210 437 212V393H364Q352 393 345 399T337 417Q337 428 344 434T364 440H486V47H555Q567 47 574 41T582 24Q582 13 575 7T555 0H437V130H435Q387 57 342 25T239 -7Q187 -7 158 22T129 102V394L90 393ZM435 651L305 522Q286 504 274 504Q256 504 256 523Q256 533 262 541L341 651H435Z"  />
<glyph unicode="&#xFB;" d="M90 393Q56 392 44 397T32 417Q32 428 40 434T59 440H180V106Q180 74 196 56T240 38Q302 38 362 100Q382 120 398 143T433 203L435 208L436 210Q436 210 437 212V393H364Q352 393 345 399T337 417Q337 428 344 434T364 440H486V47H555Q567 47 574 41T582 24Q582 13 575 7T555 0H437V130H435Q387 57 342 25T239 -7Q187 -7 158 22T129 102V394L90 393ZM354 659L446 537Q455 525 455 516Q455 504 435 504Q425 504 418 507T401 521L314 610L222 520Q213 512 207 509T191 505Q171 505 171 517Q171 522 173 528T182 541L274 659H354Z"  />
<glyph unicode="&#xFC;" d="M90 393Q56 392 44 397T32 417Q32 428 40 434T59 440H180V106Q180 74 196 56T240 38Q302 38 362 100Q382 120 398 143T433 203L435 208L436 210Q436 210 437 212V393H364Q352 393 345 399T337 417Q337 428 344 434T364 440H486V47H555Q567 47 574 41T582 24Q582 13 575 7T555 0H437V130H435Q387 57 342 25T239 -7Q187 -7 158 22T129 102V394L90 393ZM173 599Q194 599 207 586T221 553Q221 533 208 520T175 506Q156 506 143 519T129 553Q129 571 142 585T173 599ZM423 598Q443 598 457 585T471 552Q471 532 458 519T425 505Q405 505 392 518T378 551Q378 570 391 584T423 598Z"  />
<glyph unicode="&#xFD;" d="M101 393Q68 392 56 397T44 417Q44 428 51 434T71 441H246Q257 441 264 435T272 417Q272 406 265 400T246 393H192L316 83L439 393H385Q374 393 366 399T358 417Q358 428 366 434T385 441H557Q569 441 576 435T584 417Q584 406 577 400T557 393H492L302 -86Q282 -136 248 -162T168 -189Q142 -189 120 -181T80 -159T54 -125T44 -84Q44 -58 58 -42T94 -26Q113 -26 125 -39T138 -72Q138 -84 132 -96T116 -116Q112 -120 112 -122Q112 -130 129 -136T166 -143Q185 -143 200 -137T227 -116T252 -75T279 -10L281 -5Q283 0 284 4T289 16L290 19L140 393H101ZM435 651L305 522Q286 504 274 504Q256 504 256 523Q256 533 262 541L341 651H435Z"  />
<glyph unicode="&#xFE;" d="M348 37Q411 37 448 86T486 219Q486 259 476 293T449 351T407 389T354 403Q323 403 296 389T250 350T219 292T207 220Q207 181 218 148T247 90T292 51T348 37ZM76 582Q45 582 45 604Q45 627 80 627H206V354H208Q225 380 241 398T274 427T309 442T351 447Q391 447 425 431T484 385T522 314T536 224Q536 174 522 132T483 59T424 11T349 -7Q304 -7 272 14T208 88H206V-126H286Q297 -126 304 -132T312 -149Q312 -170 283 -170H91Q61 -170 61 -150Q61 -126 108 -126H159V582H76Z"  />
<glyph unicode="&#xFF;" d="M101 393Q68 392 56 397T44 417Q44 428 51 434T71 441H246Q257 441 264 435T272 417Q272 406 265 400T246 393H192L316 83L439 393H385Q374 393 366 399T358 417Q358 428 366 434T385 441H557Q569 441 576 435T584 417Q584 406 577 400T557 393H492L302 -86Q282 -136 248 -162T168 -189Q142 -189 120 -181T80 -159T54 -125T44 -84Q44 -58 58 -42T94 -26Q113 -26 125 -39T138 -72Q138 -84 132 -96T116 -116Q112 -120 112 -122Q112 -130 129 -136T166 -143Q185 -143 200 -137T227 -116T252 -75T279 -10L281 -5Q283 0 284 4T289 16L290 19L140 393H101ZM173 599Q194 599 207 586T221 553Q221 533 208 520T175 506Q156 506 143 519T129 553Q129 571 142 585T173 599ZM423 598Q443 598 457 585T471 552Q471 532 458 519T425 505Q405 505 392 518T378 551Q378 570 391 584T423 598Z"  />
<glyph unicode="&#x131;" d="M143 393Q131 393 124 400T116 418Q116 441 145 441H337V48H467Q478 48 486 41T494 23Q494 12 488 6T470 0H147Q136 0 129 6T121 24Q121 35 127 41T145 48H286V393H143Z"  />
<glyph unicode="&#x152;" d="M283 536Q283 577 229 577Q155 577 117 510T78 313Q78 178 117 107T228 35Q283 35 283 85V536ZM306 0Q299 0 289 0T268 -1L262 -2H256L247 -3H229Q126 -3 74 85Q63 103 55 128T40 182T31 243T28 308Q28 365 37 419T64 510Q87 559 128 587T218 615H574V409Q574 375 551 375Q539 375 534 385T529 419V490Q529 569 442 569H330V340H360Q416 340 416 400V452Q416 488 437 488Q446 488 452 482T458 465V168Q458 137 437 137Q416 137 416 172V214Q416 255 402 273T355 292H330V46H447Q535 46 535 123V195Q535 234 557 234Q567 234 573 226T580 205V0H306Z"  />
<glyph unicode="&#x153;" d="M536 260Q534 301 528 325T506 369Q477 406 431 406Q387 406 361 376T334 298V260H536ZM283 306Q283 351 258 376T189 402Q132 402 106 356T80 209Q80 116 105 74T186 32Q233 32 258 62T283 147V306ZM334 158Q334 32 431 32Q510 32 535 123Q540 143 545 149T561 155Q571 155 578 150T585 136Q585 124 581 110T571 81T555 53T535 29Q496 -12 430 -12Q388 -12 359 4T310 55Q287 18 259 3T186 -12Q105 -12 67 45T29 222Q29 284 43 331T87 408Q125 448 190 448Q229 448 256 434T310 385Q336 419 363 433T426 448Q501 448 544 390T589 230V216H334V158Z"  />
<glyph unicode="&#x160;" d="M443 565L444 573L446 588Q449 613 455 623T473 633Q495 633 495 609V433Q495 424 490 418T475 411Q466 411 461 418T449 446Q441 472 434 487T413 519Q387 550 353 565T278 581Q215 581 176 549T137 463Q137 410 183 379Q214 359 302 350Q352 345 384 337T443 316Q488 293 510 256T533 169Q533 128 518 95T476 39T410 2T324 -11Q268 -11 227 6T147 62Q145 58 145 54T144 42V38Q140 -3 135 -16T116 -30Q106 -30 99 -24T91 -10V224Q91 233 97 239T113 245Q125 245 131 234T140 197Q144 162 151 142T173 102Q224 36 321 36Q396 36 440 71T485 164Q485 220 441 256Q430 266 418 273T389 285T350 293T298 300Q239 305 207 314T149 341Q87 386 87 461Q87 498 100 529T139 582T198 617T275 629Q299 629 319 626T359 614T399 592T442 557L443 565ZM165 787Q158 797 158 806Q158 818 176 818Q187 818 194 815T212 801L299 712L391 803Q403 816 422 816Q442 816 442 803Q442 794 435 786L340 664H256L165 787Z"  />
<glyph unicode="&#x161;" d="M429 394Q430 396 430 399T431 405V407Q436 435 442 445T460 456Q482 456 482 431V306Q482 281 463 281Q456 281 452 284T443 299Q390 408 274 408Q229 408 200 387T170 333Q170 301 199 285T303 261Q359 255 394 245T452 221Q478 203 492 178T507 123Q507 94 495 70T460 27T406 -1T339 -11Q291 -11 254 4T173 55Q172 51 172 45T170 35V32Q166 5 160 -6T142 -17Q123 -17 123 2V156Q123 172 140 172Q148 172 154 166T168 141Q176 124 181 116T195 96Q221 66 257 50T338 33Q392 33 426 56T461 118Q461 156 425 180Q411 189 381 196T309 208Q210 219 167 247T123 329Q123 356 134 378T166 416T214 442T275 451Q319 451 356 437T429 392V394ZM165 627Q158 637 158 646Q158 658 176 658Q187 658 194 655T212 641L299 552L391 643Q403 656 422 656Q442 656 442 643Q442 634 435 626L340 504H256L165 627Z"  />
<glyph unicode="&#x178;" d="M74 570Q45 569 34 574T23 594Q23 604 30 610T50 617H226Q238 617 245 611T253 594Q253 583 246 577T226 571H160L308 293L455 571H377Q365 571 358 577T350 594Q350 604 357 610T377 617H564Q575 617 582 611T590 594Q590 583 583 577T564 571H508L332 238V47H446Q458 47 465 41T473 24Q473 13 466 7T446 0H166Q154 0 147 6T139 23Q139 34 146 40T166 47H281V240L106 571L74 570ZM173 759Q194 759 207 746T221 713Q221 693 208 680T175 666Q156 666 143 679T129 713Q129 731 142 745T173 759ZM423 758Q443 758 457 745T471 712Q471 692 458 679T425 665Q405 665 392 678T378 711Q378 730 391 744T423 758Z"  />
<glyph unicode="&#x17D;" d="M515 617Q522 617 527 612T532 598Q532 593 527 586L142 47H413Q430 47 449 56T478 80Q489 95 494 118T500 177Q501 210 506 222T525 234Q548 234 546 205L539 0H72Q58 0 58 10Q58 17 68 32L355 431L455 571H257Q208 571 186 546T159 458L158 449Q154 401 131 401Q123 401 117 406T112 419L125 617H515ZM165 787Q158 797 158 806Q158 818 176 818Q187 818 194 815T212 801L299 712L391 803Q403 816 422 816Q442 816 442 803Q442 794 435 786L340 664H256L165 787Z"  />
<glyph unicode="&#x17E;" d="M486 441Q510 441 510 421Q510 412 502 400T468 360L181 47H413Q424 47 435 53T455 68Q464 79 467 94T473 136Q474 165 479 176T497 188Q505 188 511 181T518 163V0H104Q92 0 92 14Q92 25 98 31L430 393H231Q200 393 186 377T166 319L165 311Q157 267 136 267Q128 267 122 273T117 287V291L139 441H486ZM165 627Q158 637 158 646Q158 658 176 658Q187 658 194 655T212 641L299 552L391 643Q403 656 422 656Q442 656 442 643Q442 634 435 626L340 504H256L165 627Z"  />
<glyph unicode="&#x192;" d="M245 434Q247 469 249 488T258 525Q296 629 420 629Q477 629 510 608T544 552Q544 532 533 520T501 507Q483 507 472 515T461 536Q461 540 463 550L464 552Q465 556 465 558T466 562Q466 588 421 588Q380 588 351 572T306 523Q298 507 295 488T292 435H414Q448 435 448 412Q448 390 420 390H291V59Q291 7 280 -35T248 -108T198 -154T132 -171Q96 -171 96 -146Q96 -135 102 -131T127 -125Q154 -121 170 -114T201 -91Q220 -69 232 -26T245 64V390H139Q104 390 104 411Q104 424 113 429T145 434H245Z"  />
<glyph unicode="&#x2C6;" d="M354 659L446 537Q455 525 455 516Q455 504 435 504Q425 504 418 507T401 521L314 610L222 520Q213 512 207 509T191 505Q171 505 171 517Q171 522 173 528T182 541L274 659H354Z"  />
<glyph unicode="&#x2C7;" d="M165 627Q158 637 158 646Q158 658 176 658Q187 658 194 655T212 641L299 552L391 643Q403 656 422 656Q442 656 442 643Q442 634 435 626L340 504H256L165 627Z"  />
<glyph unicode="&#x2DA;" d="M297 695Q318 695 336 688T367 667T388 637T396 599Q396 559 369 532T301 504Q281 504 264 511T233 532T213 562T205 599Q205 618 212 635T232 666T262 687T297 695ZM302 653Q279 653 263 638T247 600Q247 577 262 562T300 546Q323 546 338 561T353 599Q353 621 338 637T302 653Z"  />
<glyph unicode="&#x2DC;" d="M98 509Q113 623 202 623Q227 623 254 614T323 583Q355 567 372 561T403 555Q426 555 439 569T461 616H502Q492 504 403 504Q379 504 354 512T288 542Q255 559 237 566T202 573Q155 573 143 509H98Z"  />
<glyph unicode="&#x2013;" d="M613 244V195H0V244H613Z"  />
<glyph unicode="&#x2014;" d="M613 244V195H0V244H613Z"  />
<glyph unicode="&#x2018;" d="M460 606Q460 598 455 592T434 576Q396 553 376 527T355 478Q355 466 361 461T386 454Q455 443 455 389Q455 361 435 341T385 321Q366 321 350 330T321 355T301 392T294 439Q294 530 377 596Q396 610 413 619T440 628Q448 628 454 622T460 606Z"  />
<glyph unicode="&#x2019;" d="M215 500Q190 503 176 519T161 560Q161 589 181 608T231 628Q270 628 295 596T321 513Q321 438 261 377Q238 354 213 338T175 322Q167 322 161 328T154 342Q154 349 160 355T183 374Q262 431 262 469Q262 482 253 488T223 498L215 500Z"  />
<glyph unicode="&#x201A;" d="M129 -160Q129 -154 134 -148T153 -133Q191 -110 212 -82T234 -31Q234 -20 227 -15T201 -8Q182 -6 171 -2T152 11Q143 20 138 33T132 59Q132 87 152 106T201 125Q221 125 238 116T268 91T288 54T295 7Q295 -68 233 -130Q212 -152 188 -166T151 -181Q143 -181 136 -175T129 -160Z"  />
<glyph unicode="&#x201C;" d="M222 566Q189 541 170 516T151 471Q151 457 158 452T184 445Q251 440 251 381Q251 352 231 334T180 315Q160 315 143 323T113 347T93 382T86 425Q86 474 113 522T186 603Q211 621 228 621Q239 621 245 615T252 599Q252 592 248 587T227 570L222 566ZM482 566Q449 541 430 516T411 471Q411 457 418 452T444 445Q476 443 493 427T511 381Q511 352 491 334T439 315Q419 315 403 323T373 347T353 382T346 425Q346 474 373 522T446 603Q471 621 488 621Q498 621 505 615T512 599Q512 592 507 587T486 570L482 566Z"  />
<glyph unicode="&#x201D;" d="M354 336Q354 341 359 347T378 362Q416 385 437 413T459 464Q459 475 452 480T426 487Q407 490 396 494T377 506Q357 526 357 554Q357 582 377 601T426 620Q446 620 463 611T493 586T513 549T520 503Q520 427 458 365Q437 344 413 329T376 314Q368 314 361 321T354 336ZM93 336Q93 342 98 347T117 362Q155 386 176 413T198 464Q198 475 191 480T165 488Q146 490 135 494T116 507Q96 527 96 555Q96 583 116 602T165 621Q185 621 202 612T232 587T252 550T259 503Q259 428 197 366Q176 344 152 330T115 315Q107 315 100 321T93 336Z"  />
<glyph unicode="&#x201E;" d="M354 -162Q354 -156 359 -151T379 -136Q416 -112 438 -85T460 -34Q460 -23 453 -18T427 -10Q408 -8 397 -4T378 9Q369 18 364 31T358 57Q358 85 378 103T427 122Q467 122 493 89T520 5Q520 -70 459 -133Q438 -154 414 -169T377 -184Q369 -184 362 -177T354 -162ZM93 -161Q93 -155 98 -150T118 -135Q155 -111 177 -84T199 -33Q199 -22 192 -17T166 -10Q147 -7 136 -3T117 10Q108 19 103 31T97 58Q97 85 117 104T166 123Q206 123 232 90T259 6Q259 -69 198 -132Q177 -153 153 -168T115 -183Q107 -183 100 -176T93 -161Z"  />
<glyph unicode="&#x2020;" d="M278 492Q278 506 277 521T274 558V563Q273 570 273 577T272 587Q272 618 307 618Q337 618 337 586Q337 575 334 548L333 540L332 534Q331 524 331 517T330 507V371H386Q398 371 414 372T450 375L456 376Q464 377 470 377T482 378Q508 378 508 345Q508 314 484 314Q482 314 478 314T465 316H460L450 317Q434 319 421 320T393 321H330V-81Q330 -104 333 -131L335 -139V-143Q337 -151 337 -155T337 -162Q337 -188 303 -188Q271 -188 271 -161Q271 -158 271 -154T273 -142V-139Q276 -120 277 -110T278 -88V320H201Q196 320 189 320T172 318H166L159 317Q147 315 140 315T126 315Q111 315 105 321T98 345Q98 380 125 380Q128 380 134 380T147 378H152Q178 374 200 373T244 371H278V492Z"  />
<glyph unicode="&#x2021;" d="M281 520Q281 531 281 540T279 562L278 569L277 573Q276 581 276 585T276 593Q276 624 307 624Q339 624 339 595Q339 593 339 589T337 576V572L336 561Q334 541 333 524T331 492V407H402Q413 407 428 408T459 412H464Q470 413 475 413T484 414Q513 414 513 381Q513 351 484 351Q481 351 475 351T459 353L450 354Q437 356 425 356T403 357H331V90H399Q410 90 422 91T455 94L460 95Q469 96 474 96T484 97Q512 97 512 64Q512 34 483 34Q478 34 471 34T455 36L449 37L442 38Q429 39 422 39T408 40H331V-50Q331 -59 331 -76T334 -113V-119Q335 -128 335 -135T336 -146Q336 -163 330 -170T306 -178Q274 -178 274 -148Q274 -145 274 -140T276 -128L277 -124Q279 -105 280 -91T281 -63V40H206Q201 40 191 40T172 37L165 36Q141 33 132 33Q102 33 102 65Q102 95 134 95Q139 95 148 95T169 93L175 92H179H184L202 91Q210 90 216 90T224 90H281V357H225Q216 357 201 357T171 354L162 353H158Q146 351 143 351T135 351Q102 351 102 383Q102 412 136 412Q140 412 146 412T160 410H165Q180 408 196 408T221 407H281V520Z"  />
<glyph unicode="&#x2022;" d="M301 424Q328 424 351 415T392 389T419 350T429 301Q429 275 419 253T393 213T353 187T305 177Q279 177 257 186T218 213T192 252T182 300Q182 325 191 347T217 387T255 414T301 424Z"  />
<glyph unicode="&#x2026;" d="M113 60Q130 60 140 50T151 24Q151 8 141 -2T114 -13Q99 -13 89 -3T78 24Q78 38 88 49T113 60ZM311 61Q327 61 337 51T348 24Q348 9 338 -1T312 -12Q297 -12 286 -2T275 24Q275 39 286 50T311 61ZM508 61Q524 61 535 51T546 24Q546 9 535 -2T509 -13Q494 -13 483 -2T472 24Q472 39 483 50T508 61Z"  />
<glyph unicode="&#x2030;" d="M185 501Q165 501 148 492T117 465T95 426T87 378Q87 342 105 321T153 299Q172 299 189 308T220 334T241 372T249 418Q249 452 230 476T185 501ZM439 558L437 560Q404 542 381 532T340 515T304 506T266 502Q280 478 285 462T290 422Q290 387 279 357T250 305T206 271T150 258Q102 258 73 291T43 378Q43 412 54 442T84 495T130 531T185 544Q189 544 191 544T199 543L202 542H208Q217 541 224 541T238 540Q280 540 326 556T436 609L447 615Q464 625 474 629T496 633Q518 633 518 620Q518 613 515 607L85 -160Q72 -182 68 -186T55 -191Q29 -191 29 -179Q29 -172 35 -160L439 558ZM663 -83Q611 -83 579 -50T547 38Q547 71 558 101T589 153T633 189T688 203Q712 203 732 194T767 169T790 130T799 80Q799 47 788 18T759 -34T715 -70T663 -83ZM654 -41Q674 -41 692 -32T725 -6T747 32T755 78Q755 113 736 135T688 158Q670 158 653 148T622 120T601 81T593 34Q593 1 610 -20T654 -41ZM407 158Q387 158 369 148T337 120T315 81T307 33Q307 1 325 -20T372 -42Q391 -42 408 -32T440 -4T462 35T471 81Q471 96 466 110T451 134T431 151T407 158ZM402 203Q452 203 482 169T512 80Q512 46 501 17T471 -35T426 -70T371 -83Q323 -83 293 -50T262 35Q262 68 273 98T304 152T349 189T402 203Z"  />
<glyph unicode="&#x2039;" d="M315 357Q343 397 369 397Q387 397 387 382Q387 374 381 365L277 218L377 70Q385 57 385 49Q385 38 369 38Q356 38 342 48T317 74L220 220L315 357Z"  />
<glyph unicode="&#x203A;" d="M235 364Q227 377 227 384Q227 396 244 396Q270 396 302 350L393 216L300 74Q274 36 248 36Q228 36 228 50Q228 59 234 66L336 216L235 364Z"  />
<glyph unicode="&#x20AC;" d="M446 260Q446 242 419 242H157Q169 137 222 81Q242 60 272 50T334 39Q395 39 435 73T486 160Q488 169 492 183T509 198Q521 198 528 192T536 175Q536 148 521 116T479 56T415 9T332 -10Q274 -10 228 16T152 92Q137 118 126 157T110 242H87Q60 242 60 260Q60 283 92 283H107Q106 291 106 297T106 312Q106 319 106 325T107 338H87Q60 338 60 356Q60 379 92 379H110Q117 436 135 482T180 561T243 611T322 629Q370 629 408 609T476 543H478V576Q478 611 482 622T502 634Q525 634 525 609V407Q525 400 518 395T503 389Q492 389 487 397T477 427Q471 463 456 491T419 539T373 569T321 580Q283 580 251 560T196 501Q184 480 175 448T160 379H434Q466 379 466 356Q466 338 439 338H156Q155 327 155 318T154 297V283H414Q446 283 446 260Z"  />
<glyph unicode="&#x2122;" d="M565 616Q596 616 596 597Q596 590 591 586T579 581H553V318H571Q595 318 595 301Q595 282 569 282H504Q476 282 476 301Q476 318 500 318H518V581H507L437 290H414L342 581L333 582V318H352Q363 318 369 313T376 300Q376 282 347 282H283Q254 282 254 300Q254 318 283 318H298V581H283Q272 581 266 583T251 592V501Q251 475 236 475Q228 475 223 482T218 502V535Q218 560 210 570T182 581H155V318H184Q215 318 215 300Q215 292 209 287T191 282H95Q63 282 63 301Q63 318 96 318H120V581H105Q79 582 69 574T59 545V505Q59 493 54 484T40 475Q32 475 27 483T22 502V615H371L425 390H427L479 616H565Z"  />


</font>
</defs>
</svg>
