<?xml version="1.0" encoding="utf-8"?>
<!-- Generator: Adobe Illustrator 16.2.1, SVG Export Plug-In . SVG Version: 6.00 Build 0)  -->
<!DOCTYPE svg PUBLIC "-//W3C//DTD SVG 1.1//EN" "http://www.w3.org/Graphics/SVG/1.1/DTD/svg11.dtd">
<svg version="1.1" id="Layer_1" xmlns="http://www.w3.org/2000/svg" xmlns:xlink="http://www.w3.org/1999/xlink" x="0px" y="0px"
	 width="360px" height="55px" viewBox="0 0 360 55" enable-background="new 0 0 360 55" xml:space="preserve">
<g>
	<g>
		<g>
			<path fill="#C4D600" d="M1.2,6.1c0,0-1,1.6-0.5,5.4c0,0,0.9-2.1,1.2-2.1c0.4,0,0.5,5.1,0.5,5.1l0.7-1l0.6,7l1.1-2.4l1,7.4l1-2.5
				l1.5,9.4l0.8-2.8l1.2,8.4l1-1.3l-0.1,6.1l1.1-2.9l0.6,6.5l1.1-1.7l-0.4,5l1.7-2.1l-0.3,4.7l2.2-2.9l0.6,1.8l0.8-1.8l1.1,3.3
				l1.3-3.5l1.5,5.7l1-5.5l1,2.8l1-3l1.4,3.2l1.5-3.3l0.5,2.5l1-4.8l1,1.8l0.5-6l1.4,2.2l-0.5-5.4l1.6,1.1l-3-5.4l1.6,0.5l-4.2-7.6
				l1.7,0.3l-4.5-7.9l1.5,0.4l-3.9-7.3l1.1,0.4l-3-5.4l1.3,0.3l-3.1-4.2l-0.2,1.8l-1.6-2.2l-0.5,1.9l-2-3.9l-1.3,4.5l-1-3.8
				l-1.5,3.3l-0.7-2.9L9.2,6l0.1-3.5L6.6,5.8l1-3.4l-3.2,3l0.1-2.5L0,6.1L1.2,6.1z"/>
		</g>
		<g>
			<path fill="#C4D600" d="M28,6.3l2-0.3l-2.7,2.7l1.6-0.3l-3.1,4.3l1.2-0.1l-0.4,3.9l1.1-1.2l0.8,5.2l0.5-1.5l0.3,4.7l1-1.1l2,7.4
				l0.4-1.5l1,5.4l1-1.8l0.1,5.8l1.1-1.2l0.3,6.3l1.3-2.3c0,0-0.4,5.9-0.2,5.9c0.3,0,1.7-3.1,1.7-2.5c0.1,0.5-0.3,6.1-0.3,6.1
				l1.6-1.8l0.1,3.1l1.2-2.4l1.2,2.9l1-3.2l1.1,4.2l1.1-4.6l1.5,2.9L48,49l1.8,3.4l1.1-3.3l1.1,3.2l1.5-3.3l1,1.3l-0.4-3.5l1.2,1.7
				l0.1-4.5l1.5,1.7l-0.4-4.7L58,41l-2.6-3.2l2.2,0.2l-4.1-6l1.3,0.4L52,28.4l1.2-1.1l-3.3-5l1.7,0.8l-3.5-5.4l1.3-0.2L46.1,12h1.3
				l-2.8-4.5l1.7,0.7l-3.1-3.7L42.6,6l-0.8-3.2l-1.5,2.8l-1.2-2.3l-1,2.5L36.8,2L35.4,6l-0.6-3.8l-1.3,3.3l0.3-3l-2.4,3.7L31,3.4
				L28,6.3z"/>
		</g>
		<g>
			<path fill="#C4D600" d="M52.4,6.7L53.6,7l-2.9,3.5l1.6-0.2l-2.8,3.8h1.4l0.1,3.9l1-1.3l0.1,3.9c0,0,0.8-1.3,0.8-1.1
				c0,0.3,0.3,4.6,0.3,4.6L54,22l0.8,5.2l0.7-0.8l0.3,3.5l0.7-1l0.3,4.8l0.9-1.6l1,5.1l0.6-1.2l0.1,1.9l0.6-2.5l0.5,1.7l0.7-4.5
				l1.3,1.4l0.3-5.9l1,1l0.3-4.6l0.7,1.8l0.5-5.1l0.8,1.3l0.3-4.6l1.3,2l0.3-5.6l0.8,0.6v-3.3l0.9,1.4l0.6-4.9l1,1L70,5.2l-1.2,1
				c0,0-0.2-2.3-0.3-2c-0.1,0.3-0.8,2.4-0.8,2.4l-0.5-2.1L66,6.1l0.1-2.5l-1.8,3l-1-3.7l-0.9,2.6L61.6,3l-0.8,2.7
				c0,0-2.8-3.4-2.7-3.2c0.1,0.3-0.9,3.2-0.9,3.2l-0.7-2.3L52.4,6.7z"/>
		</g>
		<g>
			<path fill="#C4D600" d="M74.1,5.9l-1.5,4.5l2-0.9l-1.6,6.8l1.4-1l-2.1,5.4l2-1.1l-1.7,6.4l2.2-1.9l-2.4,8.6l1.8-0.7l-1.6,7.4
				l1.3-1.1l-1.1,5.5l1.3-1.1c0,0-2.1,5.5-1.7,5.6c0.4,0.1,1.9-0.9,1.9-0.9L73,51.9l2.2-1.8l0.3,2.5l0.9-2.2l0.7,3.8l1.8-3.9
				l1.4,4.3l1.9-4.4l1.3,4.4l1.2-4.1l1.3,1.8l0.7-2.5l3.1,4.9l0.5-4.7l2.5,1.8l-1-2.7l1.5,0.7L92,44.1l1.4,0.4L91.9,37l1.7,0.8
				l-1.4-7.3l2.8,0.6l-2.8-9.2l1,0.8l-1-6.8l2.6,1.2l-2.4-5.4l2.3,0.5L92,6.2l1.2,0.7l-2.4-3.3l-1,2.5l-1-4.1l-1.5,3.9L87,1.5
				l-1.2,3.9l-1.6-2l0.4,2.3l-0.9-4.3l-1.3,3.9l-1-2.9L80,6l-0.9-3.6l-0.8,3.4l-1-3.3l-1.7,3.8l-0.6-3L74.1,5.9z"/>
		</g>
		<g>
			<path fill="#C4D600" d="M99.1,4.2l-1.7,4.7l1.8-0.8l-1.9,8.5l1.5-0.5l-1,4.5l1.1-0.3l-1.5,5.3l1.4-0.9l-2,6.8l1.6-1.2l-1.1,6
				l1.4-0.7l-0.9,6.1l1.2-0.8l-1.5,5.3l1.2-0.8l-1.5,5.3l1.5-2.1l1,2.5l1-2.1l0.3,4l2.1-4.3c0,0,2,3.9,1.9,3.6
				c-0.1-0.3,0.4-3.9,0.4-3.9l0.5,3.7L107,49l1,3.8l0.7-3.9l1.7,3l0.3-2.7l1.9,3.1l1-3.4l1,3.9l1-3.5l1.7,2.2l-0.2-2.9l1.2,1.3
				l-1.3-4.2l1.5,1.1l-1.3-5.4l1.6,0.5l-1.7-6.1l1.7,1.1l-1.5-7.4l1.4,0.4l-1.1-4.6l1.7,0.4l-1.7-6.1l1.7,0.3l-2-5l2.4,0.3l-2.2-6.2
				l1.8,0.3l-2.4-5.7L116,5.5l-0.8-3.1l-1.1,3L111.6,0l-1.2,5.2l-0.4-4l-1.2,3.2L107,2c0,0-1,3.2-1,3.4c0,0.3-0.5-3.2-0.5-3.2
				l-1.2,3.6l-0.6-3.3l-1.1,3.3l-1.7-3.6l-0.3,3.3L99.1,4.2z"/>
		</g>
		<g>
			<polygon fill="#C4D600" points="119.4,36.5 120.3,36.5 119.4,40.3 120.1,40 119.4,45.4 120.1,45 119.5,48.1 120.4,47.6 
				119.8,51.2 121,49.8 121.2,51.6 121.9,49.9 122.6,52 123.7,49.6 124.1,51.7 124.9,49.6 126.5,51.7 127.8,49.7 129.6,53.2 
				130.7,49.7 131.7,52.1 132.1,49.5 133.6,51.2 133.8,49.5 135.2,50.5 134,47.4 135.7,48.2 133.6,42 134.9,42.7 133.7,39.1 
				135.1,39.5 133.7,36.2 134.9,36.7 133,32.9 132.2,34.3 131.7,32 130.8,34.9 129.5,32.3 129.3,34.6 128.9,31.3 128,33.8 
				127.2,32.2 126.9,34.1 125.6,32 124.1,35.2 123.6,31.5 122.7,34.6 121.7,32.4 			"/>
		</g>
		<g>
			<polygon fill="#C4D600" points="137.6,9.4 139.1,9 137.3,16.8 138.5,15.9 137.5,24.3 139.4,21.2 137.6,30.1 139.3,28.7 138,36.1 
				139.4,35.3 137.7,41 138.8,40.1 138.1,44.1 139.5,43 138.1,47.7 139.2,46.4 138.6,51.3 140.6,49 141.4,51.7 142.3,48.8 
				142.9,51.8 144.2,48.5 144.8,50.8 145.8,48.7 147,50.5 147.9,48.8 148.7,51.7 149,48.4 150.3,50.6 151.8,48.3 152.5,50.8 
				153.4,48 154.6,50.2 155.3,48 156.8,49.9 155.6,45.5 156.8,46 155.6,41.6 156.8,42.3 155.6,36.9 157.1,37.5 155.8,30.8 
				157.2,31.4 155.5,26.3 157.2,27.8 155.8,18.8 157.2,19.6 155.7,11.6 157,12 155.8,7.8 156.9,8.2 155.4,3.4 154.3,4.5 153.5,1.3 
				152.8,4.7 151.1,1.9 149.5,5.1 147.9,1.2 147.3,4.4 144.9,1.4 144.2,4.7 142.6,1.2 141.7,5.4 140.5,2 			"/>
		</g>
		<g>
			<path fill="#C4D600" d="M159.4,4.6l-1.3,3.2l1.2-1l-0.7,4.7l1-0.3l-1.8,5l1.7-1l-0.9,3.6l1-0.4l-0.9,4.7l1.8-1.6l0.3,2.2l2.8-1
				c0,0-1,1.1-0.8,1.1c0.3,0,2.2,0.6,2.2,0.6l-1,0.5l1.2,2.5L164,27l0.2,3.3l-0.6-0.8l-1.6,2.4l0.4-2l-2.4,2.5l-0.5-1.1l-1.2,4.3
				l1.3-1.4l-1,3.5l1-0.7l-0.8,4.2l1-1l-1.5,6.2l1.1-1.8l-0.9,4.6l1.2-0.8l-0.5,3l2.2-2.4l0.7,2.2l1.6-2.2l-0.3,2.1l2.7-2.7v2
				l2.8-3.1l-0.2,2.4l2.2-2.7l0.9,1.4l3-4l0.1,3.2l2-4.9l0.6,2.7l2.6-6l0.4,2.5l2-6.2l1,2.1l-0.1-5.9l1.9,0.5l-1.1-4l1.7,1.6l-1.6-4
				l2,1.1l-2.4-4.3l2,0.6l-2.9-4.6l1.4-0.4l-3.5-4.2l1.7,0.1l-4.7-3.2l1-0.7l-3.4-1.4l2.3-0.5l-5.2-1.3l2.1-1.1l-4.8-0.2l1.5-1.2
				L166.6,5l1-1.3l-4.2,1l1.4-1.6L159.4,4.6z"/>
		</g>
	</g>
	<path fill="#144733" d="M190.4,4.3h36v14.9l-9.2-0.4v31.5h-17.6V18.8l-9.2,0.4V4.3z"/>
	<path fill="#144733" d="M233.6,4.3h18.1v46h-18.1V4.3z"/>
	<path fill="#144733" d="M265.8,4.3h17.6l6.3,24.2h0.4c0.3-2,0.6-4.1,1.2-6.1l5.2-18.1H314l7.5,46h-16.6l-2.2-25.2h-0.3
		c-0.3,1.5-0.6,3.1-1.1,4.6l-6.6,20.6h-9.7l-6-19.5c-0.5-2-0.9-3.8-1-5.7h-0.5c-0.1,1.8-0.2,3.7-0.4,5.6L275,50.3h-16.6L265.8,4.3z"
		/>
	<path fill="#144733" d="M328.2,4.3h31.3v12.6h-14v4.4h12.8v12h-12.8v4.5H360v12.6h-31.8V4.3z"/>
</g>
</svg>
